<svg xmlns="http://www.w3.org/2000/svg" xmlns:xlink="http://www.w3.org/1999/xlink" width="40" zoomAndPan="magnify" viewBox="0 0 30 30.000001" height="40" preserveAspectRatio="xMidYMid meet" version="1.0"><defs><g/><clipPath id="5585097f3a"><path d="M 0.484375 0 L 29.515625 0 L 29.515625 29.03125 L 0.484375 29.03125 Z M 0.484375 0 " clip-rule="nonzero"/></clipPath><clipPath id="695c2cfb67"><path d="M 3.128906 8 L 27 8 L 27 20 L 3.128906 20 Z M 3.128906 8 " clip-rule="nonzero"/></clipPath><clipPath id="9b0a8e04e7"><path d="M 3.128906 7.585938 L 27 7.585938 L 27 21.378906 L 3.128906 21.378906 Z M 3.128906 7.585938 " clip-rule="nonzero"/></clipPath><clipPath id="53724e7c47"><path d="M 4 1 L 5 1 L 5 2.316406 L 4 2.316406 Z M 4 1 " clip-rule="nonzero"/></clipPath><clipPath id="434eb5f599"><path d="M 6 1 L 8 1 L 8 2.316406 L 6 2.316406 Z M 6 1 " clip-rule="nonzero"/></clipPath><clipPath id="d7ebbde724"><path d="M 8 1 L 10 1 L 10 2.316406 L 8 2.316406 Z M 8 1 " clip-rule="nonzero"/></clipPath><clipPath id="9542b66ce5"><path d="M 11 1 L 12.960938 1 L 12.960938 2 L 11 2 Z M 11 1 " clip-rule="nonzero"/></clipPath><clipPath id="9374a3356d"><path d="M 12 1 L 12.960938 1 L 12.960938 2 L 12 2 Z M 12 1 " clip-rule="nonzero"/></clipPath><clipPath id="cc0d4eaa62"><rect x="0" width="13" y="0" height="3"/></clipPath><clipPath id="e38bbbe59c"><path d="M 0.109375 0.15625 L 1 0.15625 L 1 2 L 0.109375 2 Z M 0.109375 0.15625 " clip-rule="nonzero"/></clipPath><clipPath id="86cd2d7d0f"><path d="M 0.109375 0.15625 L 2 0.15625 L 2 2 L 0.109375 2 Z M 0.109375 0.15625 " clip-rule="nonzero"/></clipPath><clipPath id="323f60afe2"><path d="M 3 0.15625 L 4 0.15625 L 4 2 L 3 2 Z M 3 0.15625 " clip-rule="nonzero"/></clipPath><clipPath id="c4938da3ac"><path d="M 3 0.15625 L 5 0.15625 L 5 2 L 3 2 Z M 3 0.15625 " clip-rule="nonzero"/></clipPath><clipPath id="5e08001545"><path d="M 5 0.15625 L 6 0.15625 L 6 2 L 5 2 Z M 5 0.15625 " clip-rule="nonzero"/></clipPath><clipPath id="192f83cc95"><path d="M 5 0.15625 L 7 0.15625 L 7 2 L 5 2 Z M 5 0.15625 " clip-rule="nonzero"/></clipPath><clipPath id="44ad70fd28"><path d="M 7 0.15625 L 8 0.15625 L 8 2 L 7 2 Z M 7 0.15625 " clip-rule="nonzero"/></clipPath><clipPath id="24b7352b05"><path d="M 7 0.15625 L 9 0.15625 L 9 2 L 7 2 Z M 7 0.15625 " clip-rule="nonzero"/></clipPath><clipPath id="6a963a67a8"><path d="M 8 0.15625 L 10 0.15625 L 10 2 L 8 2 Z M 8 0.15625 " clip-rule="nonzero"/></clipPath><clipPath id="0dac9907e2"><path d="M 9 0.15625 L 11 0.15625 L 11 2 L 9 2 Z M 9 0.15625 " clip-rule="nonzero"/></clipPath><clipPath id="f5210a258d"><path d="M 10 0.15625 L 11 0.15625 L 11 2 L 10 2 Z M 10 0.15625 " clip-rule="nonzero"/></clipPath><clipPath id="0e5a4daec1"><path d="M 10 1 L 11.953125 1 L 11.953125 2 L 10 2 Z M 10 1 " clip-rule="nonzero"/></clipPath><clipPath id="d955a932e1"><path d="M 11 0.15625 L 11.953125 0.15625 L 11.953125 2 L 11 2 Z M 11 0.15625 " clip-rule="nonzero"/></clipPath><clipPath id="39ffb9302d"><rect x="0" width="12" y="0" height="3"/></clipPath><clipPath id="14a651047e"><path d="M 0.652344 0.0117188 L 2 0.0117188 L 2 1.871094 L 0.652344 1.871094 Z M 0.652344 0.0117188 " clip-rule="nonzero"/></clipPath><clipPath id="986b3d156d"><path d="M 1 0.0117188 L 3 0.0117188 L 3 1.871094 L 1 1.871094 Z M 1 0.0117188 " clip-rule="nonzero"/></clipPath><clipPath id="a953f5237a"><path d="M 2 0.0117188 L 3 0.0117188 L 3 1.871094 L 2 1.871094 Z M 2 0.0117188 " clip-rule="nonzero"/></clipPath><clipPath id="58060e46db"><path d="M 3 0.0117188 L 4 0.0117188 L 4 1.871094 L 3 1.871094 Z M 3 0.0117188 " clip-rule="nonzero"/></clipPath><clipPath id="209d8ee069"><path d="M 3 1 L 4 1 L 4 1.871094 L 3 1.871094 Z M 3 1 " clip-rule="nonzero"/></clipPath><clipPath id="345a27daa8"><path d="M 3 0.0117188 L 5 0.0117188 L 5 1.871094 L 3 1.871094 Z M 3 0.0117188 " clip-rule="nonzero"/></clipPath><clipPath id="8c95afc869"><path d="M 4 0.0117188 L 6 0.0117188 L 6 1.871094 L 4 1.871094 Z M 4 0.0117188 " clip-rule="nonzero"/></clipPath><clipPath id="297cb524a1"><path d="M 5 0.0117188 L 6 0.0117188 L 6 1.871094 L 5 1.871094 Z M 5 0.0117188 " clip-rule="nonzero"/></clipPath><clipPath id="9c1f77ca26"><path d="M 5 0.0117188 L 7 0.0117188 L 7 1.871094 L 5 1.871094 Z M 5 0.0117188 " clip-rule="nonzero"/></clipPath><clipPath id="f2acc13613"><path d="M 6 0.0117188 L 8 0.0117188 L 8 1.871094 L 6 1.871094 Z M 6 0.0117188 " clip-rule="nonzero"/></clipPath><clipPath id="8d157d20e7"><path d="M 7 0.0117188 L 8 0.0117188 L 8 1.871094 L 7 1.871094 Z M 7 0.0117188 " clip-rule="nonzero"/></clipPath><clipPath id="46a7769d62"><path d="M 7 0.0117188 L 9 0.0117188 L 9 1.871094 L 7 1.871094 Z M 7 0.0117188 " clip-rule="nonzero"/></clipPath><clipPath id="52fb1f02ac"><path d="M 8 0.0117188 L 10 0.0117188 L 10 1.871094 L 8 1.871094 Z M 8 0.0117188 " clip-rule="nonzero"/></clipPath><clipPath id="5680d8785b"><path d="M 9 0.0117188 L 10 0.0117188 L 10 1.871094 L 9 1.871094 Z M 9 0.0117188 " clip-rule="nonzero"/></clipPath><clipPath id="9ffd3d2918"><path d="M 9 1 L 10 1 L 10 1.871094 L 9 1.871094 Z M 9 1 " clip-rule="nonzero"/></clipPath><clipPath id="af8214bbc6"><path d="M 10 0.0117188 L 11 0.0117188 L 11 1.871094 L 10 1.871094 Z M 10 0.0117188 " clip-rule="nonzero"/></clipPath><clipPath id="44d108121d"><path d="M 10 0.0117188 L 12 0.0117188 L 12 1.871094 L 10 1.871094 Z M 10 0.0117188 " clip-rule="nonzero"/></clipPath><clipPath id="abea15b02f"><path d="M 11 0.0117188 L 12.730469 0.0117188 L 12.730469 1.871094 L 11 1.871094 Z M 11 0.0117188 " clip-rule="nonzero"/></clipPath><clipPath id="0e1e958646"><path d="M 12 0.0117188 L 12.730469 0.0117188 L 12.730469 1.871094 L 12 1.871094 Z M 12 0.0117188 " clip-rule="nonzero"/></clipPath><clipPath id="15e6a62f55"><rect x="0" width="13" y="0" height="2"/></clipPath></defs><g clip-path="url(#5585097f3a)"><path fill="#ffffff" d="M 0.484375 0 L 29.515625 0 L 29.515625 29.03125 L 0.484375 29.03125 Z M 0.484375 0 " fill-opacity="1" fill-rule="nonzero"/><path fill="#ffda45" d="M 0.484375 0 L 29.515625 0 L 29.515625 29.03125 L 0.484375 29.03125 Z M 0.484375 0 " fill-opacity="1" fill-rule="nonzero"/></g><path fill="#473472" d="M 13.242188 19.867188 L 13.292969 19.867188 L 13.292969 20.554688 L 12.792969 20.554688 L 12.792969 20.847656 L 6.167969 20.847656 L 6.167969 20.554688 L 5.164062 20.554688 L 5.164062 19.867188 L 7.273438 19.867188 L 7.273438 20.160156 L 12.691406 20.160156 L 12.691406 19.867188 Z M 22.824219 17.820312 L 21.21875 17.820312 L 21.21875 18.113281 L 18.210938 18.113281 L 18.210938 19.09375 L 19.3125 19.09375 L 19.3125 18.800781 L 21.320312 18.800781 L 21.320312 18.507812 L 23.328125 18.507812 L 23.328125 17.820312 Z M 26.285156 17.527344 L 24.730469 17.527344 L 24.730469 17.820312 L 23.726562 17.820312 L 23.726562 18.214844 L 25.839844 18.214844 L 25.839844 17.921875 L 26.339844 17.921875 L 26.339844 17.527344 Z M 26.285156 17.527344 " fill-opacity="1" fill-rule="nonzero"/><path fill="#e4a908" d="M 15.75 20.453125 L 15.800781 20.453125 L 15.800781 20.847656 L 14.695312 20.847656 L 14.695312 20.160156 L 15.300781 20.160156 L 15.300781 20.453125 Z M 17.304688 20.160156 L 17.304688 19.867188 L 16.703125 19.867188 L 16.703125 20.554688 L 17.808594 20.554688 L 17.808594 20.160156 Z M 15.75 19.574219 L 15.699219 19.574219 L 15.699219 19.96875 L 16.304688 19.96875 L 16.304688 19.574219 Z M 23.777344 18.992188 L 23.726562 18.992188 L 23.726562 19.386719 L 24.332031 19.386719 L 24.332031 18.992188 Z M 17.304688 18.40625 L 16.703125 18.40625 L 16.703125 18.800781 L 17.808594 18.800781 L 17.808594 18.40625 Z M 15.199219 18.40625 L 15.199219 18.699219 L 14.695312 18.699219 L 14.695312 19.09375 L 15.800781 19.09375 L 15.800781 18.40625 Z M 17.253906 16.753906 L 17.304688 16.753906 L 17.304688 11.386719 L 16.703125 11.386719 L 16.703125 16.753906 Z M 26.285156 13.726562 L 25.734375 13.726562 L 25.734375 15.292969 L 26.339844 15.292969 L 26.339844 13.726562 Z M 24.78125 13.433594 L 24.730469 13.433594 L 24.730469 15 L 25.332031 15 L 25.332031 13.433594 Z M 23.777344 13.144531 L 23.726562 13.144531 L 23.726562 15 L 24.332031 15 L 24.332031 13.144531 Z M 22.773438 12.851562 L 22.722656 12.851562 L 22.722656 14.707031 L 23.328125 14.707031 L 23.328125 12.851562 Z M 14.746094 13.246094 L 15.300781 13.246094 L 15.300781 10.804688 L 14.695312 10.804688 L 14.695312 11.679688 L 14.191406 11.679688 L 14.191406 12.851562 L 13.691406 12.851562 L 13.691406 13.246094 Z M 21.820312 12.558594 L 21.320312 12.558594 L 21.320312 12.265625 L 20.714844 12.265625 L 20.714844 14.707031 L 22.324219 14.707031 L 22.324219 12.558594 Z M 19.8125 11.972656 L 18.710938 11.972656 L 18.710938 14.414062 L 20.316406 14.414062 L 20.316406 11.972656 Z M 12.289062 10.21875 L 6.667969 10.21875 L 6.667969 10.511719 L 6.167969 10.511719 L 6.167969 11.097656 L 5.667969 11.097656 L 5.667969 12.265625 L 5.164062 12.265625 L 5.164062 14.121094 L 10.285156 14.121094 L 10.285156 13.828125 L 11.285156 13.828125 L 11.285156 13.539062 L 11.789062 13.539062 L 11.789062 12.074219 L 12.289062 12.074219 L 12.289062 10.90625 L 12.792969 10.90625 L 12.792969 10.21875 Z M 12.289062 10.21875 " fill-opacity="1" fill-rule="nonzero"/><path fill="#87bac3" d="M 10.234375 15.53125 L 10.734375 15.53125 L 10.734375 16.117188 L 10.234375 16.117188 Z M 4.210938 15.824219 L 4.210938 16.117188 L 4.714844 16.117188 L 4.714844 15.53125 L 4.210938 15.53125 Z M 10.234375 8.808594 L 9.730469 8.808594 L 9.730469 9.101562 L 10.734375 9.101562 L 10.734375 8.808594 Z M 10.234375 8.808594 " fill-opacity="1" fill-rule="nonzero"/><g clip-path="url(#695c2cfb67)"><path fill="#53629e" d="M 26.285156 15.480469 L 26.335938 15.480469 L 26.335938 17.046875 L 25.839844 17.046875 L 25.839844 17.339844 L 24.230469 17.339844 L 24.230469 15.480469 L 26.289062 15.480469 Z M 26.285156 12.558594 L 25.839844 12.558594 L 25.839844 11.972656 L 24.832031 11.972656 L 24.832031 11.679688 L 24.332031 11.679688 L 24.332031 11.386719 L 23.726562 11.386719 L 23.726562 12.660156 L 24.730469 12.660156 L 24.730469 12.953125 L 25.734375 12.953125 L 25.734375 13.246094 L 26.339844 13.246094 L 26.339844 12.558594 Z M 5.214844 12.367188 L 5.265625 12.367188 L 5.265625 11.972656 L 4.664062 11.972656 L 4.664062 12.367188 Z M 23.277344 11.386719 L 23.328125 11.386719 L 23.328125 12.367188 L 22.222656 12.367188 L 22.222656 12.074219 L 21.21875 12.074219 L 21.21875 11.78125 L 20.214844 11.78125 L 20.214844 11.492188 L 18.710938 11.492188 L 18.710938 11.199219 L 18.3125 11.199219 L 18.3125 14.898438 L 20.320312 14.898438 L 20.320312 15.1875 L 23.328125 15.1875 L 23.328125 17.335938 L 21.820312 17.335938 L 21.820312 17.628906 L 17.304688 17.628906 L 17.304688 17.921875 L 14.796875 17.921875 L 14.796875 18.507812 L 14.292969 18.507812 L 14.292969 19.386719 L 13.292969 19.386719 L 13.292969 19.675781 L 12.691406 19.675781 L 12.691406 19.386719 L 12.289062 19.386719 L 12.289062 19.675781 L 6.167969 19.675781 L 6.167969 19.386719 L 4.664062 19.386719 L 4.664062 19.09375 L 4.160156 19.09375 L 4.160156 18.214844 L 3.660156 18.214844 L 3.660156 16.359375 L 4.261719 16.359375 L 4.261719 16.652344 L 5.265625 16.652344 L 5.265625 16.945312 L 5.667969 16.945312 L 5.667969 15.582031 L 5.164062 15.582031 L 5.164062 15 L 4.160156 15 L 4.160156 13.433594 L 4.765625 13.433594 L 4.765625 14.3125 L 5.265625 14.3125 L 5.265625 14.605469 L 6.769531 14.605469 L 6.769531 14.898438 L 8.675781 14.898438 L 8.675781 14.605469 L 10.179688 14.605469 L 10.179688 14.3125 L 11.183594 14.3125 L 11.183594 14.019531 L 11.6875 14.019531 L 11.6875 13.433594 L 12.1875 13.433594 L 12.1875 12.265625 L 12.691406 12.265625 L 12.691406 10.804688 L 13.191406 10.804688 L 13.191406 10.027344 L 12.691406 10.027344 L 12.691406 9.734375 L 10.683594 9.734375 L 10.683594 9.34375 L 11.1875 9.34375 L 11.1875 8.171875 L 14.800781 8.171875 L 14.800781 8.464844 L 15.804688 8.464844 L 15.804688 8.757812 L 16.304688 8.757812 L 16.304688 9.050781 L 17.308594 9.050781 L 17.308594 9.34375 L 18.3125 9.34375 L 18.3125 9.632812 L 18.8125 9.632812 L 18.8125 9.925781 L 19.816406 9.925781 L 19.816406 10.21875 L 20.820312 10.21875 L 20.820312 10.511719 L 21.320312 10.511719 L 21.320312 10.804688 L 22.324219 10.804688 L 22.324219 11.097656 L 22.828125 11.097656 L 22.828125 11.386719 Z M 17.707031 11.097656 L 17.707031 10.90625 L 16.703125 10.90625 L 16.703125 10.613281 L 16.304688 10.613281 L 16.304688 17.234375 L 17.707031 17.234375 Z M 13.191406 18.992188 L 13.191406 14.898438 L 13.695312 14.898438 L 13.695312 13.726562 L 15.699219 13.726562 L 15.699219 10.613281 L 15.199219 10.613281 L 15.199219 10.320312 L 14.796875 10.320312 L 14.796875 10.613281 L 14.292969 10.613281 L 14.292969 11.492188 L 13.792969 11.492188 L 13.792969 12.953125 L 13.292969 12.953125 L 13.292969 14.414062 L 12.789062 14.414062 L 12.789062 19.285156 L 13.191406 19.285156 Z M 10.285156 15 L 10.285156 15.292969 L 9.28125 15.292969 L 9.28125 16.460938 L 8.777344 16.460938 L 8.777344 16.945312 L 9.679688 16.945312 L 9.679688 16.652344 L 11.183594 16.652344 L 11.183594 15.1875 L 11.6875 15.1875 L 11.6875 15 Z M 5.71875 11.199219 L 5.769531 11.199219 L 5.769531 10.804688 L 5.164062 10.804688 L 5.164062 11.199219 Z M 6.21875 10.320312 L 6.269531 10.320312 L 6.269531 10.027344 L 6.769531 10.027344 L 6.769531 9.734375 L 8.277344 9.734375 L 8.277344 8.464844 L 7.671875 8.464844 L 7.671875 8.757812 L 7.171875 8.757812 L 7.171875 9.050781 L 6.667969 9.050781 L 6.667969 9.34375 L 6.167969 9.34375 L 6.167969 9.925781 L 5.667969 9.925781 L 5.667969 10.320312 Z M 9.679688 8.566406 L 10.285156 8.566406 L 10.285156 8.171875 L 9.179688 8.171875 L 9.179688 8.566406 Z M 9.679688 8.566406 " fill-opacity="1" fill-rule="nonzero"/></g><g clip-path="url(#9b0a8e04e7)"><path fill="#000000" d="M 16.703125 17.335938 L 17.808594 17.335938 L 17.808594 10.804688 L 16.804688 10.804688 L 16.804688 10.511719 L 16.203125 10.511719 L 16.203125 17.335938 Z M 16.804688 16.460938 L 16.804688 11.492188 L 17.203125 11.492188 L 17.203125 16.652344 L 16.804688 16.652344 Z M 9.175781 17.046875 L 9.78125 17.046875 L 9.78125 16.753906 L 11.285156 16.753906 L 11.285156 15.292969 L 11.785156 15.292969 L 11.785156 14.898438 L 10.179688 14.898438 L 10.179688 15.1875 L 9.179688 15.1875 L 9.179688 16.359375 L 8.675781 16.359375 L 8.675781 17.046875 L 9.179688 17.046875 Z M 10.683594 15.773438 L 10.683594 16.066406 L 10.285156 16.066406 L 10.285156 15.582031 L 10.683594 15.582031 Z M 26.789062 12.265625 L 26.335938 12.265625 L 26.335938 11.679688 L 25.839844 11.679688 L 25.839844 11.386719 L 24.832031 11.386719 L 24.832031 11.097656 L 23.828125 11.097656 L 23.828125 10.804688 L 23.328125 10.804688 L 23.328125 10.511719 L 22.324219 10.511719 L 22.324219 10.21875 L 21.320312 10.21875 L 21.320312 9.925781 L 20.816406 9.925781 L 20.816406 9.632812 L 19.816406 9.632812 L 19.816406 9.34375 L 18.8125 9.34375 L 18.8125 9.050781 L 18.3125 9.050781 L 18.3125 8.757812 L 17.304688 8.757812 L 17.304688 8.464844 L 16.304688 8.464844 L 16.304688 8.171875 L 15.800781 8.171875 L 15.800781 7.878906 L 14.796875 7.878906 L 14.796875 7.585938 L 9.179688 7.585938 L 9.179688 7.878906 L 7.671875 7.878906 L 7.671875 8.171875 L 7.171875 8.171875 L 7.171875 8.464844 L 6.667969 8.464844 L 6.667969 8.757812 L 6.167969 8.757812 L 6.167969 9.050781 L 5.667969 9.050781 L 5.667969 9.632812 L 5.164062 9.632812 L 5.164062 10.804688 L 4.664062 10.804688 L 4.664062 11.972656 L 4.160156 11.972656 L 4.160156 13.144531 L 3.660156 13.144531 L 3.660156 14.898438 L 3.15625 14.898438 L 3.15625 18.507812 L 3.660156 18.507812 L 3.660156 19.386719 L 4.160156 19.386719 L 4.160156 19.675781 L 4.664062 19.675781 L 4.664062 21.140625 L 6.667969 21.140625 L 6.667969 21.433594 L 12.792969 21.433594 L 12.792969 21.140625 L 13.292969 21.140625 L 13.292969 20.847656 L 13.796875 20.847656 L 13.796875 19.96875 L 14.191406 19.96875 L 14.191406 21.140625 L 14.695312 21.140625 L 14.695312 21.429688 L 15.800781 21.429688 L 15.800781 21.140625 L 16.300781 21.140625 L 16.300781 20.554688 L 16.703125 20.554688 L 16.703125 21.140625 L 17.808594 21.140625 L 17.808594 20.847656 L 18.3125 20.847656 L 18.3125 19.96875 L 18.8125 19.96875 L 18.8125 19.386719 L 21.320312 19.386719 L 21.320312 19.09375 L 23.226562 19.09375 L 23.226562 19.675781 L 23.730469 19.675781 L 23.730469 19.96875 L 24.332031 19.96875 L 24.332031 19.675781 L 25.839844 19.675781 L 25.839844 19.09375 L 26.339844 19.09375 L 26.339844 18.214844 L 26.839844 18.214844 L 26.839844 12.265625 Z M 26.234375 12.851562 L 26.234375 13.144531 L 25.839844 13.144531 L 25.839844 12.851562 L 24.832031 12.851562 L 24.832031 12.558594 L 23.828125 12.558594 L 23.828125 11.492188 L 24.226562 11.492188 L 24.226562 11.78125 L 24.730469 11.78125 L 24.730469 12.074219 L 25.734375 12.074219 L 25.734375 12.660156 L 26.238281 12.660156 Z M 26.234375 14.019531 L 26.234375 15.191406 L 25.839844 15.191406 L 25.839844 13.828125 L 26.238281 13.828125 Z M 26.234375 15.773438 L 26.234375 16.945312 L 25.734375 16.945312 L 25.734375 17.234375 L 24.332031 17.234375 L 24.332031 15.582031 L 26.238281 15.582031 Z M 14.800781 20.554688 L 14.800781 20.261719 L 15.199219 20.261719 L 15.199219 20.554688 L 15.699219 20.554688 L 15.699219 20.746094 L 14.796875 20.746094 Z M 13.191406 20.160156 L 13.191406 20.453125 L 12.691406 20.453125 L 12.691406 20.746094 L 6.269531 20.746094 L 6.269531 20.453125 L 5.265625 20.453125 L 5.265625 19.96875 L 7.171875 19.96875 L 7.171875 20.261719 L 12.792969 20.261719 L 12.792969 19.96875 L 13.191406 19.96875 Z M 4.261719 18.800781 L 4.261719 18.113281 L 3.761719 18.113281 L 3.761719 16.460938 L 4.160156 16.460938 L 4.160156 16.753906 L 5.164062 16.753906 L 5.164062 17.046875 L 5.769531 17.046875 L 5.769531 15.480469 L 5.265625 15.480469 L 5.265625 14.898438 L 4.261719 14.898438 L 4.261719 13.539062 L 4.664062 13.539062 L 4.664062 14.414062 L 5.164062 14.414062 L 5.164062 14.707031 L 6.667969 14.707031 L 6.667969 15 L 8.777344 15 L 8.777344 14.707031 L 10.285156 14.707031 L 10.285156 14.414062 L 11.285156 14.414062 L 11.285156 14.121094 L 11.789062 14.121094 L 11.789062 13.539062 L 12.289062 13.539062 L 12.289062 12.367188 L 12.792969 12.367188 L 12.792969 10.90625 L 13.292969 10.90625 L 13.292969 9.925781 L 12.792969 9.925781 L 12.792969 9.632812 L 10.785156 9.632812 L 10.785156 9.445312 L 11.289062 9.445312 L 11.289062 8.273438 L 14.699219 8.273438 L 14.699219 8.566406 L 15.699219 8.566406 L 15.699219 8.859375 L 16.203125 8.859375 L 16.203125 9.152344 L 17.207031 9.152344 L 17.207031 9.445312 L 18.210938 9.445312 L 18.210938 9.734375 L 18.710938 9.734375 L 18.710938 10.027344 L 19.714844 10.027344 L 19.714844 10.320312 L 20.71875 10.320312 L 20.71875 10.613281 L 21.21875 10.613281 L 21.21875 10.90625 L 22.222656 10.90625 L 22.222656 11.199219 L 22.726562 11.199219 L 22.726562 11.492188 L 23.226562 11.492188 L 23.226562 12.265625 L 22.324219 12.265625 L 22.324219 11.972656 L 21.320312 11.972656 L 21.320312 11.679688 L 20.316406 11.679688 L 20.316406 11.386719 L 18.8125 11.386719 L 18.8125 11.097656 L 18.210938 11.097656 L 18.210938 15 L 20.214844 15 L 20.214844 15.292969 L 23.226562 15.292969 L 23.226562 17.234375 L 21.71875 17.234375 L 21.71875 17.527344 L 17.203125 17.527344 L 17.203125 17.820312 L 14.695312 17.820312 L 14.695312 18.40625 L 14.191406 18.40625 L 14.191406 19.285156 L 13.292969 19.285156 L 13.292969 15 L 13.796875 15 L 13.796875 13.828125 L 15.800781 13.828125 L 15.800781 10.511719 L 15.300781 10.511719 L 15.300781 10.21875 L 14.695312 10.21875 L 14.695312 10.511719 L 14.191406 10.511719 L 14.191406 11.386719 L 13.691406 11.386719 L 13.691406 12.851562 L 13.191406 12.851562 L 13.191406 14.3125 L 12.6875 14.3125 L 12.6875 19.285156 L 12.1875 19.285156 L 12.1875 19.574219 L 6.269531 19.574219 L 6.269531 19.285156 L 4.765625 19.285156 L 4.765625 18.992188 L 4.261719 18.992188 Z M 4.261719 15.875 L 4.261719 15.582031 L 4.664062 15.582031 L 4.664062 16.066406 L 4.261719 16.066406 Z M 4.765625 12.074219 L 5.164062 12.074219 L 5.164062 12.265625 L 4.765625 12.265625 Z M 5.265625 10.90625 L 5.667969 10.90625 L 5.667969 11.097656 L 5.265625 11.097656 Z M 26.234375 17.820312 L 25.734375 17.820312 L 25.734375 18.113281 L 23.828125 18.113281 L 23.828125 17.921875 L 24.832031 17.921875 L 24.832031 17.628906 L 26.234375 17.628906 Z M 5.769531 10.027344 L 6.167969 10.027344 L 6.167969 10.21875 L 5.769531 10.21875 Z M 6.269531 9.683594 L 6.269531 9.445312 L 6.769531 9.445312 L 6.769531 9.152344 L 7.273438 9.152344 L 7.273438 8.859375 L 7.773438 8.859375 L 7.773438 8.566406 L 8.175781 8.566406 L 8.175781 9.632812 L 6.667969 9.632812 L 6.667969 9.925781 L 6.269531 9.925781 Z M 12.238281 10.804688 L 12.1875 10.804688 L 12.1875 11.972656 L 11.6875 11.972656 L 11.6875 13.433594 L 11.183594 13.433594 L 11.183594 13.726562 L 10.179688 13.726562 L 10.179688 14.019531 L 5.265625 14.019531 L 5.265625 12.367188 L 5.769531 12.367188 L 5.769531 11.199219 L 6.269531 11.199219 L 6.269531 10.613281 L 6.769531 10.613281 L 6.769531 10.320312 L 12.691406 10.320312 L 12.691406 10.804688 Z M 10.683594 9.050781 L 9.78125 9.050781 L 9.78125 8.859375 L 10.683594 8.859375 Z M 9.679688 8.273438 L 10.179688 8.273438 L 10.179688 8.464844 L 9.28125 8.464844 L 9.28125 8.273438 Z M 25.230469 13.777344 L 25.230469 14.898438 L 24.832031 14.898438 L 24.832031 13.539062 L 25.230469 13.539062 Z M 18.8125 14.121094 L 18.8125 12.074219 L 20.214844 12.074219 L 20.214844 14.3125 L 18.8125 14.3125 Z M 21.269531 12.660156 L 22.222656 12.660156 L 22.222656 14.605469 L 20.816406 14.605469 L 20.816406 12.367188 L 21.21875 12.367188 L 21.21875 12.660156 Z M 24.226562 13.433594 L 24.226562 14.898438 L 23.828125 14.898438 L 23.828125 13.246094 L 24.226562 13.246094 Z M 23.226562 13.144531 L 23.226562 14.605469 L 22.824219 14.605469 L 22.824219 12.953125 L 23.226562 12.953125 Z M 17.707031 18.699219 L 16.804688 18.699219 L 16.804688 18.507812 L 17.707031 18.507812 Z M 14.796875 18.800781 L 15.300781 18.800781 L 15.300781 18.507812 L 15.699219 18.507812 L 15.699219 18.992188 L 14.796875 18.992188 Z M 15.800781 19.675781 L 16.203125 19.675781 L 16.203125 19.867188 L 15.800781 19.867188 Z M 12.792969 19.386719 L 13.191406 19.386719 L 13.191406 19.574219 L 12.792969 19.574219 Z M 14.242188 12.953125 L 14.292969 12.953125 L 14.292969 11.78125 L 14.796875 11.78125 L 14.796875 10.90625 L 15.195312 10.90625 L 15.195312 13.144531 L 13.796875 13.144531 L 13.796875 12.953125 Z M 23.828125 19.09375 L 24.226562 19.09375 L 24.226562 19.285156 L 23.828125 19.285156 Z M 16.804688 20.210938 L 16.804688 19.96875 L 17.203125 19.96875 L 17.203125 20.261719 L 17.707031 20.261719 L 17.707031 20.453125 L 16.804688 20.453125 Z M 18.710938 18.992188 L 18.3125 18.992188 L 18.3125 18.214844 L 21.320312 18.214844 L 21.320312 17.921875 L 23.226562 17.921875 L 23.226562 18.40625 L 21.21875 18.40625 L 21.21875 18.699219 L 19.210938 18.699219 L 19.210938 18.992188 Z M 18.710938 18.992188 " fill-opacity="1" fill-rule="nonzero"/></g><g transform="matrix(1, 0, 0, 1, 14, 23)"><g clip-path="url(#cc0d4eaa62)"><g fill="#ffda45" fill-opacity="1"><g transform="translate(0.999999, 1.939718)"><g><path d="M 0.4375 0 L 0.328125 0 L 0.328125 -0.34375 L 0.015625 -0.875 L 0.140625 -0.875 L 0.375 -0.46875 L 0.390625 -0.46875 L 0.625 -0.875 L 0.734375 -0.875 L 0.4375 -0.34375 Z M 0.4375 0 "/></g></g></g><g fill="#ffda45" fill-opacity="1"><g transform="translate(1.672987, 1.939718)"><g><path d="M 0.375 0.015625 C 0.3125 0.015625 0.253906 0.00390625 0.203125 -0.015625 C 0.160156 -0.046875 0.128906 -0.0859375 0.109375 -0.140625 C 0.0859375 -0.191406 0.078125 -0.253906 0.078125 -0.328125 C 0.078125 -0.398438 0.0859375 -0.460938 0.109375 -0.515625 C 0.128906 -0.566406 0.160156 -0.601562 0.203125 -0.625 C 0.253906 -0.65625 0.3125 -0.671875 0.375 -0.671875 C 0.4375 -0.671875 0.488281 -0.65625 0.53125 -0.625 C 0.582031 -0.601562 0.617188 -0.566406 0.640625 -0.515625 C 0.671875 -0.460938 0.6875 -0.398438 0.6875 -0.328125 C 0.6875 -0.253906 0.671875 -0.191406 0.640625 -0.140625 C 0.617188 -0.0859375 0.582031 -0.046875 0.53125 -0.015625 C 0.488281 0.00390625 0.4375 0.015625 0.375 0.015625 Z M 0.375 -0.078125 C 0.445312 -0.078125 0.5 -0.0976562 0.53125 -0.140625 C 0.570312 -0.179688 0.59375 -0.242188 0.59375 -0.328125 C 0.59375 -0.421875 0.570312 -0.488281 0.53125 -0.53125 C 0.5 -0.570312 0.445312 -0.59375 0.375 -0.59375 C 0.3125 -0.59375 0.257812 -0.570312 0.21875 -0.53125 C 0.1875 -0.488281 0.171875 -0.421875 0.171875 -0.328125 C 0.171875 -0.242188 0.1875 -0.179688 0.21875 -0.140625 C 0.257812 -0.0976562 0.3125 -0.078125 0.375 -0.078125 Z M 0.375 -0.078125 "/></g></g></g><g fill="#ffda45" fill-opacity="1"><g transform="translate(2.437116, 1.939718)"><g><path d="M 0.328125 0.015625 C 0.253906 0.015625 0.195312 -0.00390625 0.15625 -0.046875 C 0.125 -0.0859375 0.109375 -0.144531 0.109375 -0.21875 L 0.109375 -0.671875 L 0.203125 -0.671875 L 0.203125 -0.21875 C 0.203125 -0.125 0.25 -0.078125 0.34375 -0.078125 C 0.40625 -0.078125 0.453125 -0.09375 0.484375 -0.125 C 0.523438 -0.164062 0.546875 -0.234375 0.546875 -0.328125 L 0.546875 -0.671875 L 0.640625 -0.671875 L 0.640625 0 L 0.546875 0 L 0.546875 -0.109375 L 0.53125 -0.109375 C 0.507812 -0.0664062 0.484375 -0.0351562 0.453125 -0.015625 C 0.421875 0.00390625 0.378906 0.015625 0.328125 0.015625 Z M 0.328125 0.015625 "/></g></g></g><g fill="#ffda45" fill-opacity="1"><g transform="translate(3.193399, 1.939718)"><g><path d="M 0.109375 0 L 0.109375 -0.671875 L 0.203125 -0.671875 L 0.203125 -0.5625 L 0.21875 -0.5625 C 0.25 -0.632812 0.304688 -0.671875 0.390625 -0.671875 C 0.441406 -0.671875 0.476562 -0.660156 0.5 -0.640625 L 0.46875 -0.5625 C 0.4375 -0.570312 0.40625 -0.578125 0.375 -0.578125 C 0.320312 -0.578125 0.28125 -0.554688 0.25 -0.515625 C 0.226562 -0.472656 0.21875 -0.410156 0.21875 -0.328125 L 0.21875 0 Z M 0.109375 0 "/></g></g></g><g fill="#ffda45" fill-opacity="1"><g transform="translate(3.707647, 1.939718)"><g/></g></g><g clip-path="url(#53724e7c47)"><g fill="#ffda45" fill-opacity="1"><g transform="translate(4.010643, 1.939718)"><g><path d="M 0.109375 0.265625 L 0.109375 -0.671875 L 0.21875 -0.671875 L 0.21875 -0.5625 L 0.234375 -0.5625 C 0.273438 -0.632812 0.34375 -0.671875 0.4375 -0.671875 C 0.5 -0.671875 0.550781 -0.65625 0.59375 -0.625 C 0.632812 -0.601562 0.664062 -0.566406 0.6875 -0.515625 C 0.707031 -0.472656 0.71875 -0.410156 0.71875 -0.328125 C 0.71875 -0.253906 0.703125 -0.191406 0.671875 -0.140625 C 0.648438 -0.0859375 0.617188 -0.046875 0.578125 -0.015625 C 0.535156 0.00390625 0.488281 0.015625 0.4375 0.015625 C 0.394531 0.015625 0.351562 0.0078125 0.3125 0 C 0.28125 -0.0195312 0.253906 -0.0507812 0.234375 -0.09375 L 0.21875 -0.078125 L 0.21875 0.265625 Z M 0.421875 -0.078125 C 0.554688 -0.078125 0.625 -0.160156 0.625 -0.328125 C 0.625 -0.503906 0.554688 -0.59375 0.421875 -0.59375 C 0.378906 -0.59375 0.34375 -0.582031 0.3125 -0.5625 C 0.28125 -0.539062 0.253906 -0.507812 0.234375 -0.46875 C 0.222656 -0.4375 0.21875 -0.390625 0.21875 -0.328125 C 0.21875 -0.273438 0.222656 -0.226562 0.234375 -0.1875 C 0.253906 -0.144531 0.28125 -0.113281 0.3125 -0.09375 C 0.34375 -0.0820312 0.378906 -0.078125 0.421875 -0.078125 Z M 0.421875 -0.078125 "/></g></g></g></g><g fill="#ffda45" fill-opacity="1"><g transform="translate(4.804951, 1.939718)"><g><path d="M 0.28125 0.015625 C 0.207031 0.015625 0.148438 0 0.109375 -0.03125 C 0.078125 -0.0703125 0.0625 -0.125 0.0625 -0.1875 C 0.0625 -0.226562 0.0664062 -0.257812 0.078125 -0.28125 C 0.0976562 -0.3125 0.125 -0.332031 0.15625 -0.34375 C 0.195312 -0.363281 0.242188 -0.378906 0.296875 -0.390625 C 0.347656 -0.398438 0.382812 -0.410156 0.40625 -0.421875 C 0.4375 -0.429688 0.453125 -0.441406 0.453125 -0.453125 C 0.460938 -0.460938 0.46875 -0.476562 0.46875 -0.5 C 0.46875 -0.53125 0.457031 -0.550781 0.4375 -0.5625 C 0.414062 -0.582031 0.382812 -0.59375 0.34375 -0.59375 C 0.300781 -0.59375 0.265625 -0.582031 0.234375 -0.5625 C 0.203125 -0.550781 0.171875 -0.53125 0.140625 -0.5 L 0.09375 -0.5625 C 0.113281 -0.59375 0.144531 -0.617188 0.1875 -0.640625 C 0.238281 -0.660156 0.289062 -0.671875 0.34375 -0.671875 C 0.414062 -0.671875 0.472656 -0.65625 0.515625 -0.625 C 0.554688 -0.59375 0.578125 -0.546875 0.578125 -0.484375 L 0.578125 -0.125 C 0.578125 -0.09375 0.59375 -0.078125 0.625 -0.078125 C 0.632812 -0.078125 0.644531 -0.078125 0.65625 -0.078125 L 0.671875 -0.015625 C 0.660156 -0.00390625 0.648438 0 0.640625 0 C 0.628906 0 0.617188 0 0.609375 0 C 0.566406 0 0.535156 -0.00390625 0.515625 -0.015625 C 0.503906 -0.0351562 0.492188 -0.0625 0.484375 -0.09375 L 0.46875 -0.09375 C 0.445312 -0.0625 0.421875 -0.0351562 0.390625 -0.015625 C 0.359375 0.00390625 0.320312 0.015625 0.28125 0.015625 Z M 0.296875 -0.0625 C 0.328125 -0.0625 0.359375 -0.0664062 0.390625 -0.078125 C 0.421875 -0.0976562 0.441406 -0.125 0.453125 -0.15625 C 0.460938 -0.1875 0.46875 -0.222656 0.46875 -0.265625 L 0.46875 -0.359375 C 0.445312 -0.347656 0.425781 -0.335938 0.40625 -0.328125 C 0.382812 -0.328125 0.359375 -0.320312 0.328125 -0.3125 C 0.285156 -0.300781 0.25 -0.289062 0.21875 -0.28125 C 0.195312 -0.269531 0.179688 -0.253906 0.171875 -0.234375 C 0.171875 -0.222656 0.171875 -0.207031 0.171875 -0.1875 C 0.171875 -0.144531 0.179688 -0.113281 0.203125 -0.09375 C 0.222656 -0.0703125 0.253906 -0.0625 0.296875 -0.0625 Z M 0.296875 -0.0625 "/></g></g></g><g fill="#ffda45" fill-opacity="1"><g transform="translate(5.493633, 1.939718)"><g><path d="M 0.109375 0 L 0.109375 -0.671875 L 0.203125 -0.671875 L 0.203125 -0.5625 L 0.21875 -0.5625 C 0.25 -0.632812 0.304688 -0.671875 0.390625 -0.671875 C 0.441406 -0.671875 0.476562 -0.660156 0.5 -0.640625 L 0.46875 -0.5625 C 0.4375 -0.570312 0.40625 -0.578125 0.375 -0.578125 C 0.320312 -0.578125 0.28125 -0.554688 0.25 -0.515625 C 0.226562 -0.472656 0.21875 -0.410156 0.21875 -0.328125 L 0.21875 0 Z M 0.109375 0 "/></g></g></g><g fill="#ffda45" fill-opacity="1"><g transform="translate(5.995205, 1.939718)"><g><path d="M 0.28125 0.015625 C 0.207031 0.015625 0.148438 0 0.109375 -0.03125 C 0.078125 -0.0703125 0.0625 -0.125 0.0625 -0.1875 C 0.0625 -0.226562 0.0664062 -0.257812 0.078125 -0.28125 C 0.0976562 -0.3125 0.125 -0.332031 0.15625 -0.34375 C 0.195312 -0.363281 0.242188 -0.378906 0.296875 -0.390625 C 0.347656 -0.398438 0.382812 -0.410156 0.40625 -0.421875 C 0.4375 -0.429688 0.453125 -0.441406 0.453125 -0.453125 C 0.460938 -0.460938 0.46875 -0.476562 0.46875 -0.5 C 0.46875 -0.53125 0.457031 -0.550781 0.4375 -0.5625 C 0.414062 -0.582031 0.382812 -0.59375 0.34375 -0.59375 C 0.300781 -0.59375 0.265625 -0.582031 0.234375 -0.5625 C 0.203125 -0.550781 0.171875 -0.53125 0.140625 -0.5 L 0.09375 -0.5625 C 0.113281 -0.59375 0.144531 -0.617188 0.1875 -0.640625 C 0.238281 -0.660156 0.289062 -0.671875 0.34375 -0.671875 C 0.414062 -0.671875 0.472656 -0.65625 0.515625 -0.625 C 0.554688 -0.59375 0.578125 -0.546875 0.578125 -0.484375 L 0.578125 -0.125 C 0.578125 -0.09375 0.59375 -0.078125 0.625 -0.078125 C 0.632812 -0.078125 0.644531 -0.078125 0.65625 -0.078125 L 0.671875 -0.015625 C 0.660156 -0.00390625 0.648438 0 0.640625 0 C 0.628906 0 0.617188 0 0.609375 0 C 0.566406 0 0.535156 -0.00390625 0.515625 -0.015625 C 0.503906 -0.0351562 0.492188 -0.0625 0.484375 -0.09375 L 0.46875 -0.09375 C 0.445312 -0.0625 0.421875 -0.0351562 0.390625 -0.015625 C 0.359375 0.00390625 0.320312 0.015625 0.28125 0.015625 Z M 0.296875 -0.0625 C 0.328125 -0.0625 0.359375 -0.0664062 0.390625 -0.078125 C 0.421875 -0.0976562 0.441406 -0.125 0.453125 -0.15625 C 0.460938 -0.1875 0.46875 -0.222656 0.46875 -0.265625 L 0.46875 -0.359375 C 0.445312 -0.347656 0.425781 -0.335938 0.40625 -0.328125 C 0.382812 -0.328125 0.359375 -0.320312 0.328125 -0.3125 C 0.285156 -0.300781 0.25 -0.289062 0.21875 -0.28125 C 0.195312 -0.269531 0.179688 -0.253906 0.171875 -0.234375 C 0.171875 -0.222656 0.171875 -0.207031 0.171875 -0.1875 C 0.171875 -0.144531 0.179688 -0.113281 0.203125 -0.09375 C 0.222656 -0.0703125 0.253906 -0.0625 0.296875 -0.0625 Z M 0.296875 -0.0625 "/></g></g></g><g clip-path="url(#434eb5f599)"><g fill="#ffda45" fill-opacity="1"><g transform="translate(6.683888, 1.939718)"><g><path d="M 0.34375 0.28125 C 0.238281 0.28125 0.160156 0.257812 0.109375 0.21875 C 0.0664062 0.1875 0.046875 0.144531 0.046875 0.09375 C 0.046875 0.0507812 0.0546875 0.0195312 0.078125 0 C 0.0976562 -0.0195312 0.128906 -0.0351562 0.171875 -0.046875 L 0.171875 -0.0625 C 0.148438 -0.0703125 0.132812 -0.0820312 0.125 -0.09375 C 0.113281 -0.113281 0.109375 -0.132812 0.109375 -0.15625 C 0.109375 -0.175781 0.113281 -0.195312 0.125 -0.21875 C 0.144531 -0.238281 0.171875 -0.25 0.203125 -0.25 L 0.203125 -0.265625 C 0.128906 -0.304688 0.09375 -0.367188 0.09375 -0.453125 C 0.09375 -0.492188 0.101562 -0.53125 0.125 -0.5625 C 0.144531 -0.601562 0.171875 -0.628906 0.203125 -0.640625 C 0.242188 -0.660156 0.289062 -0.671875 0.34375 -0.671875 C 0.394531 -0.671875 0.441406 -0.660156 0.484375 -0.640625 C 0.492188 -0.660156 0.5 -0.675781 0.5 -0.6875 C 0.507812 -0.707031 0.519531 -0.726562 0.53125 -0.75 L 0.53125 -0.765625 L 0.625 -0.734375 C 0.613281 -0.703125 0.597656 -0.675781 0.578125 -0.65625 C 0.566406 -0.632812 0.546875 -0.613281 0.515625 -0.59375 L 0.515625 -0.578125 C 0.535156 -0.566406 0.550781 -0.546875 0.5625 -0.515625 C 0.570312 -0.492188 0.578125 -0.472656 0.578125 -0.453125 C 0.578125 -0.398438 0.566406 -0.359375 0.546875 -0.328125 C 0.523438 -0.296875 0.492188 -0.269531 0.453125 -0.25 C 0.421875 -0.226562 0.382812 -0.21875 0.34375 -0.21875 C 0.332031 -0.21875 0.320312 -0.222656 0.3125 -0.234375 C 0.289062 -0.234375 0.28125 -0.234375 0.28125 -0.234375 C 0.257812 -0.234375 0.238281 -0.222656 0.21875 -0.203125 C 0.207031 -0.191406 0.203125 -0.179688 0.203125 -0.171875 C 0.203125 -0.148438 0.207031 -0.132812 0.21875 -0.125 C 0.238281 -0.113281 0.265625 -0.109375 0.296875 -0.109375 L 0.453125 -0.109375 C 0.515625 -0.0976562 0.5625 -0.078125 0.59375 -0.046875 C 0.632812 -0.0234375 0.65625 0.0078125 0.65625 0.0625 C 0.65625 0.101562 0.644531 0.140625 0.625 0.171875 C 0.601562 0.203125 0.566406 0.226562 0.515625 0.25 C 0.472656 0.269531 0.414062 0.28125 0.34375 0.28125 Z M 0.34375 -0.3125 C 0.382812 -0.3125 0.414062 -0.320312 0.4375 -0.34375 C 0.46875 -0.375 0.484375 -0.410156 0.484375 -0.453125 C 0.484375 -0.492188 0.46875 -0.523438 0.4375 -0.546875 C 0.414062 -0.578125 0.382812 -0.59375 0.34375 -0.59375 C 0.289062 -0.59375 0.25 -0.578125 0.21875 -0.546875 C 0.195312 -0.523438 0.1875 -0.492188 0.1875 -0.453125 C 0.1875 -0.398438 0.195312 -0.363281 0.21875 -0.34375 C 0.25 -0.320312 0.289062 -0.3125 0.34375 -0.3125 Z M 0.34375 0.203125 C 0.394531 0.203125 0.4375 0.195312 0.46875 0.1875 C 0.5 0.175781 0.519531 0.160156 0.53125 0.140625 C 0.539062 0.117188 0.546875 0.0976562 0.546875 0.078125 C 0.546875 0.0546875 0.539062 0.0390625 0.53125 0.03125 C 0.53125 0.0195312 0.519531 0.0078125 0.5 0 C 0.488281 0 0.46875 -0.00390625 0.4375 -0.015625 L 0.265625 -0.015625 C 0.179688 -0.015625 0.140625 0.015625 0.140625 0.078125 C 0.140625 0.160156 0.207031 0.203125 0.34375 0.203125 Z M 0.34375 0.203125 "/></g></g></g></g><g fill="#ffda45" fill-opacity="1"><g transform="translate(7.365931, 1.939718)"><g><path d="M 0.109375 0 L 0.109375 -0.671875 L 0.203125 -0.671875 L 0.203125 -0.5625 L 0.21875 -0.5625 C 0.25 -0.632812 0.304688 -0.671875 0.390625 -0.671875 C 0.441406 -0.671875 0.476562 -0.660156 0.5 -0.640625 L 0.46875 -0.5625 C 0.4375 -0.570312 0.40625 -0.578125 0.375 -0.578125 C 0.320312 -0.578125 0.28125 -0.554688 0.25 -0.515625 C 0.226562 -0.472656 0.21875 -0.410156 0.21875 -0.328125 L 0.21875 0 Z M 0.109375 0 "/></g></g></g><g fill="#ffda45" fill-opacity="1"><g transform="translate(7.867503, 1.939718)"><g><path d="M 0.28125 0.015625 C 0.207031 0.015625 0.148438 0 0.109375 -0.03125 C 0.078125 -0.0703125 0.0625 -0.125 0.0625 -0.1875 C 0.0625 -0.226562 0.0664062 -0.257812 0.078125 -0.28125 C 0.0976562 -0.3125 0.125 -0.332031 0.15625 -0.34375 C 0.195312 -0.363281 0.242188 -0.378906 0.296875 -0.390625 C 0.347656 -0.398438 0.382812 -0.410156 0.40625 -0.421875 C 0.4375 -0.429688 0.453125 -0.441406 0.453125 -0.453125 C 0.460938 -0.460938 0.46875 -0.476562 0.46875 -0.5 C 0.46875 -0.53125 0.457031 -0.550781 0.4375 -0.5625 C 0.414062 -0.582031 0.382812 -0.59375 0.34375 -0.59375 C 0.300781 -0.59375 0.265625 -0.582031 0.234375 -0.5625 C 0.203125 -0.550781 0.171875 -0.53125 0.140625 -0.5 L 0.09375 -0.5625 C 0.113281 -0.59375 0.144531 -0.617188 0.1875 -0.640625 C 0.238281 -0.660156 0.289062 -0.671875 0.34375 -0.671875 C 0.414062 -0.671875 0.472656 -0.65625 0.515625 -0.625 C 0.554688 -0.59375 0.578125 -0.546875 0.578125 -0.484375 L 0.578125 -0.125 C 0.578125 -0.09375 0.59375 -0.078125 0.625 -0.078125 C 0.632812 -0.078125 0.644531 -0.078125 0.65625 -0.078125 L 0.671875 -0.015625 C 0.660156 -0.00390625 0.648438 0 0.640625 0 C 0.628906 0 0.617188 0 0.609375 0 C 0.566406 0 0.535156 -0.00390625 0.515625 -0.015625 C 0.503906 -0.0351562 0.492188 -0.0625 0.484375 -0.09375 L 0.46875 -0.09375 C 0.445312 -0.0625 0.421875 -0.0351562 0.390625 -0.015625 C 0.359375 0.00390625 0.320312 0.015625 0.28125 0.015625 Z M 0.296875 -0.0625 C 0.328125 -0.0625 0.359375 -0.0664062 0.390625 -0.078125 C 0.421875 -0.0976562 0.441406 -0.125 0.453125 -0.15625 C 0.460938 -0.1875 0.46875 -0.222656 0.46875 -0.265625 L 0.46875 -0.359375 C 0.445312 -0.347656 0.425781 -0.335938 0.40625 -0.328125 C 0.382812 -0.328125 0.359375 -0.320312 0.328125 -0.3125 C 0.285156 -0.300781 0.25 -0.289062 0.21875 -0.28125 C 0.195312 -0.269531 0.179688 -0.253906 0.171875 -0.234375 C 0.171875 -0.222656 0.171875 -0.207031 0.171875 -0.1875 C 0.171875 -0.144531 0.179688 -0.113281 0.203125 -0.09375 C 0.222656 -0.0703125 0.253906 -0.0625 0.296875 -0.0625 Z M 0.296875 -0.0625 "/></g></g></g><g clip-path="url(#d7ebbde724)"><g fill="#ffda45" fill-opacity="1"><g transform="translate(8.556185, 1.939718)"><g><path d="M 0.109375 0.265625 L 0.109375 -0.671875 L 0.21875 -0.671875 L 0.21875 -0.5625 L 0.234375 -0.5625 C 0.273438 -0.632812 0.34375 -0.671875 0.4375 -0.671875 C 0.5 -0.671875 0.550781 -0.65625 0.59375 -0.625 C 0.632812 -0.601562 0.664062 -0.566406 0.6875 -0.515625 C 0.707031 -0.472656 0.71875 -0.410156 0.71875 -0.328125 C 0.71875 -0.253906 0.703125 -0.191406 0.671875 -0.140625 C 0.648438 -0.0859375 0.617188 -0.046875 0.578125 -0.015625 C 0.535156 0.00390625 0.488281 0.015625 0.4375 0.015625 C 0.394531 0.015625 0.351562 0.0078125 0.3125 0 C 0.28125 -0.0195312 0.253906 -0.0507812 0.234375 -0.09375 L 0.21875 -0.078125 L 0.21875 0.265625 Z M 0.421875 -0.078125 C 0.554688 -0.078125 0.625 -0.160156 0.625 -0.328125 C 0.625 -0.503906 0.554688 -0.59375 0.421875 -0.59375 C 0.378906 -0.59375 0.34375 -0.582031 0.3125 -0.5625 C 0.28125 -0.539062 0.253906 -0.507812 0.234375 -0.46875 C 0.222656 -0.4375 0.21875 -0.390625 0.21875 -0.328125 C 0.21875 -0.273438 0.222656 -0.226562 0.234375 -0.1875 C 0.253906 -0.144531 0.28125 -0.113281 0.3125 -0.09375 C 0.34375 -0.0820312 0.378906 -0.078125 0.421875 -0.078125 Z M 0.421875 -0.078125 "/></g></g></g></g><g fill="#ffda45" fill-opacity="1"><g transform="translate(9.350493, 1.939718)"><g><path d="M 0.109375 0 L 0.109375 -0.9375 L 0.21875 -0.9375 L 0.21875 -0.5625 L 0.234375 -0.5625 C 0.273438 -0.632812 0.34375 -0.671875 0.4375 -0.671875 C 0.507812 -0.671875 0.5625 -0.648438 0.59375 -0.609375 C 0.632812 -0.578125 0.65625 -0.515625 0.65625 -0.421875 L 0.65625 0 L 0.5625 0 L 0.5625 -0.421875 C 0.5625 -0.460938 0.554688 -0.492188 0.546875 -0.515625 C 0.535156 -0.546875 0.519531 -0.566406 0.5 -0.578125 C 0.476562 -0.585938 0.453125 -0.59375 0.421875 -0.59375 C 0.359375 -0.59375 0.304688 -0.570312 0.265625 -0.53125 C 0.234375 -0.488281 0.21875 -0.425781 0.21875 -0.34375 L 0.21875 0 Z M 0.109375 0 "/></g></g></g><g fill="#ffda45" fill-opacity="1"><g transform="translate(10.117036, 1.939718)"><g/></g></g><g fill="#ffda45" fill-opacity="1"><g transform="translate(10.420033, 1.939718)"><g><path d="M 0.453125 -0.109375 L 0.484375 -0.03125 C 0.460938 -0.0195312 0.4375 -0.0078125 0.40625 0 C 0.382812 0.0078125 0.363281 0.015625 0.34375 0.015625 C 0.207031 0.015625 0.140625 -0.0507812 0.140625 -0.1875 L 0.140625 -0.578125 L 0.03125 -0.578125 L 0.03125 -0.671875 L 0.140625 -0.671875 L 0.140625 -0.8125 L 0.25 -0.828125 L 0.25 -0.671875 L 0.453125 -0.671875 L 0.453125 -0.578125 L 0.25 -0.578125 L 0.25 -0.1875 C 0.25 -0.113281 0.28125 -0.078125 0.34375 -0.078125 C 0.375 -0.078125 0.40625 -0.0859375 0.4375 -0.109375 Z M 0.453125 -0.109375 "/></g></g></g><g fill="#ffda45" fill-opacity="1"><g transform="translate(10.919191, 1.939718)"><g><path d="M 0.640625 -0.3125 L 0.171875 -0.3125 C 0.179688 -0.226562 0.203125 -0.164062 0.234375 -0.125 C 0.265625 -0.09375 0.3125 -0.078125 0.375 -0.078125 C 0.425781 -0.078125 0.46875 -0.0820312 0.5 -0.09375 C 0.53125 -0.113281 0.550781 -0.144531 0.5625 -0.1875 L 0.578125 -0.1875 L 0.640625 -0.140625 C 0.617188 -0.0859375 0.585938 -0.046875 0.546875 -0.015625 C 0.503906 0.00390625 0.445312 0.015625 0.375 0.015625 C 0.3125 0.015625 0.253906 0.00390625 0.203125 -0.015625 C 0.160156 -0.046875 0.128906 -0.0859375 0.109375 -0.140625 C 0.0859375 -0.191406 0.078125 -0.253906 0.078125 -0.328125 C 0.078125 -0.410156 0.0859375 -0.472656 0.109375 -0.515625 C 0.140625 -0.566406 0.175781 -0.601562 0.21875 -0.625 C 0.257812 -0.65625 0.3125 -0.671875 0.375 -0.671875 C 0.457031 -0.671875 0.519531 -0.644531 0.5625 -0.59375 C 0.613281 -0.550781 0.644531 -0.484375 0.65625 -0.390625 C 0.65625 -0.359375 0.648438 -0.332031 0.640625 -0.3125 Z M 0.546875 -0.390625 C 0.546875 -0.460938 0.53125 -0.515625 0.5 -0.546875 C 0.46875 -0.578125 0.425781 -0.59375 0.375 -0.59375 C 0.320312 -0.59375 0.273438 -0.578125 0.234375 -0.546875 C 0.203125 -0.515625 0.179688 -0.460938 0.171875 -0.390625 Z M 0.546875 -0.390625 "/></g></g></g><g clip-path="url(#9542b66ce5)"><g fill="#ffda45" fill-opacity="1"><g transform="translate(11.618737, 1.939718)"><g><path d="M 0.140625 0 L 0.03125 0 L 0.234375 -0.34375 L 0.046875 -0.671875 L 0.15625 -0.671875 L 0.3125 -0.40625 L 0.46875 -0.671875 L 0.578125 -0.671875 L 0.390625 -0.34375 L 0.59375 0 L 0.484375 0 L 0.3125 -0.28125 L 0.296875 -0.28125 Z M 0.140625 0 "/></g></g></g></g><g clip-path="url(#9374a3356d)"><g fill="#ffda45" fill-opacity="1"><g transform="translate(12.239215, 1.939718)"><g><path d="M 0.453125 -0.109375 L 0.484375 -0.03125 C 0.460938 -0.0195312 0.4375 -0.0078125 0.40625 0 C 0.382812 0.0078125 0.363281 0.015625 0.34375 0.015625 C 0.207031 0.015625 0.140625 -0.0507812 0.140625 -0.1875 L 0.140625 -0.578125 L 0.03125 -0.578125 L 0.03125 -0.671875 L 0.140625 -0.671875 L 0.140625 -0.8125 L 0.25 -0.828125 L 0.25 -0.671875 L 0.453125 -0.671875 L 0.453125 -0.578125 L 0.25 -0.578125 L 0.25 -0.1875 C 0.25 -0.113281 0.28125 -0.078125 0.34375 -0.078125 C 0.375 -0.078125 0.40625 -0.0859375 0.4375 -0.109375 Z M 0.453125 -0.109375 "/></g></g></g></g></g></g><g transform="matrix(1, 0, 0, 1, 2, 24)"><g clip-path="url(#39ffb9302d)"><g clip-path="url(#e38bbbe59c)"><g fill="#ffda45" fill-opacity="1"><g transform="translate(0.120796, 1.676148)"><g><path d="M 0.4375 0 L 0.328125 0 L 0.328125 -0.34375 L 0.015625 -0.875 L 0.140625 -0.875 L 0.375 -0.46875 L 0.390625 -0.46875 L 0.625 -0.875 L 0.734375 -0.875 L 0.4375 -0.34375 Z M 0.4375 0 "/></g></g></g></g><g clip-path="url(#86cd2d7d0f)"><g fill="#ffda45" fill-opacity="1"><g transform="translate(0.793784, 1.676148)"><g><path d="M 0.375 0.015625 C 0.3125 0.015625 0.253906 0.00390625 0.203125 -0.015625 C 0.160156 -0.046875 0.128906 -0.0859375 0.109375 -0.140625 C 0.0859375 -0.191406 0.078125 -0.253906 0.078125 -0.328125 C 0.078125 -0.398438 0.0859375 -0.460938 0.109375 -0.515625 C 0.128906 -0.566406 0.160156 -0.601562 0.203125 -0.625 C 0.253906 -0.65625 0.3125 -0.671875 0.375 -0.671875 C 0.4375 -0.671875 0.488281 -0.65625 0.53125 -0.625 C 0.582031 -0.601562 0.617188 -0.566406 0.640625 -0.515625 C 0.671875 -0.460938 0.6875 -0.398438 0.6875 -0.328125 C 0.6875 -0.253906 0.671875 -0.191406 0.640625 -0.140625 C 0.617188 -0.0859375 0.582031 -0.046875 0.53125 -0.015625 C 0.488281 0.00390625 0.4375 0.015625 0.375 0.015625 Z M 0.375 -0.078125 C 0.445312 -0.078125 0.5 -0.0976562 0.53125 -0.140625 C 0.570312 -0.179688 0.59375 -0.242188 0.59375 -0.328125 C 0.59375 -0.421875 0.570312 -0.488281 0.53125 -0.53125 C 0.5 -0.570312 0.445312 -0.59375 0.375 -0.59375 C 0.3125 -0.59375 0.257812 -0.570312 0.21875 -0.53125 C 0.1875 -0.488281 0.171875 -0.421875 0.171875 -0.328125 C 0.171875 -0.242188 0.1875 -0.179688 0.21875 -0.140625 C 0.257812 -0.0976562 0.3125 -0.078125 0.375 -0.078125 Z M 0.375 -0.078125 "/></g></g></g></g><g fill="#ffda45" fill-opacity="1"><g transform="translate(1.557913, 1.676148)"><g><path d="M 0.328125 0.015625 C 0.253906 0.015625 0.195312 -0.00390625 0.15625 -0.046875 C 0.125 -0.0859375 0.109375 -0.144531 0.109375 -0.21875 L 0.109375 -0.671875 L 0.203125 -0.671875 L 0.203125 -0.21875 C 0.203125 -0.125 0.25 -0.078125 0.34375 -0.078125 C 0.40625 -0.078125 0.453125 -0.09375 0.484375 -0.125 C 0.523438 -0.164062 0.546875 -0.234375 0.546875 -0.328125 L 0.546875 -0.671875 L 0.640625 -0.671875 L 0.640625 0 L 0.546875 0 L 0.546875 -0.109375 L 0.53125 -0.109375 C 0.507812 -0.0664062 0.484375 -0.0351562 0.453125 -0.015625 C 0.421875 0.00390625 0.378906 0.015625 0.328125 0.015625 Z M 0.328125 0.015625 "/></g></g></g><g fill="#ffda45" fill-opacity="1"><g transform="translate(2.314196, 1.676148)"><g><path d="M 0.109375 0 L 0.109375 -0.671875 L 0.203125 -0.671875 L 0.203125 -0.5625 L 0.21875 -0.5625 C 0.25 -0.632812 0.304688 -0.671875 0.390625 -0.671875 C 0.441406 -0.671875 0.476562 -0.660156 0.5 -0.640625 L 0.46875 -0.5625 C 0.4375 -0.570312 0.40625 -0.578125 0.375 -0.578125 C 0.320312 -0.578125 0.28125 -0.554688 0.25 -0.515625 C 0.226562 -0.472656 0.21875 -0.410156 0.21875 -0.328125 L 0.21875 0 Z M 0.109375 0 "/></g></g></g><g fill="#ffda45" fill-opacity="1"><g transform="translate(2.828444, 1.676148)"><g/></g></g><g clip-path="url(#323f60afe2)"><g fill="#ffda45" fill-opacity="1"><g transform="translate(3.13144, 1.676148)"><g><path d="M 0.109375 0.265625 L 0.109375 -0.671875 L 0.21875 -0.671875 L 0.21875 -0.5625 L 0.234375 -0.5625 C 0.273438 -0.632812 0.34375 -0.671875 0.4375 -0.671875 C 0.5 -0.671875 0.550781 -0.65625 0.59375 -0.625 C 0.632812 -0.601562 0.664062 -0.566406 0.6875 -0.515625 C 0.707031 -0.472656 0.71875 -0.410156 0.71875 -0.328125 C 0.71875 -0.253906 0.703125 -0.191406 0.671875 -0.140625 C 0.648438 -0.0859375 0.617188 -0.046875 0.578125 -0.015625 C 0.535156 0.00390625 0.488281 0.015625 0.4375 0.015625 C 0.394531 0.015625 0.351562 0.0078125 0.3125 0 C 0.28125 -0.0195312 0.253906 -0.0507812 0.234375 -0.09375 L 0.21875 -0.078125 L 0.21875 0.265625 Z M 0.421875 -0.078125 C 0.554688 -0.078125 0.625 -0.160156 0.625 -0.328125 C 0.625 -0.503906 0.554688 -0.59375 0.421875 -0.59375 C 0.378906 -0.59375 0.34375 -0.582031 0.3125 -0.5625 C 0.28125 -0.539062 0.253906 -0.507812 0.234375 -0.46875 C 0.222656 -0.4375 0.21875 -0.390625 0.21875 -0.328125 C 0.21875 -0.273438 0.222656 -0.226562 0.234375 -0.1875 C 0.253906 -0.144531 0.28125 -0.113281 0.3125 -0.09375 C 0.34375 -0.0820312 0.378906 -0.078125 0.421875 -0.078125 Z M 0.421875 -0.078125 "/></g></g></g></g><g clip-path="url(#c4938da3ac)"><g fill="#ffda45" fill-opacity="1"><g transform="translate(3.925748, 1.676148)"><g><path d="M 0.28125 0.015625 C 0.207031 0.015625 0.148438 0 0.109375 -0.03125 C 0.078125 -0.0703125 0.0625 -0.125 0.0625 -0.1875 C 0.0625 -0.226562 0.0664062 -0.257812 0.078125 -0.28125 C 0.0976562 -0.3125 0.125 -0.332031 0.15625 -0.34375 C 0.195312 -0.363281 0.242188 -0.378906 0.296875 -0.390625 C 0.347656 -0.398438 0.382812 -0.410156 0.40625 -0.421875 C 0.4375 -0.429688 0.453125 -0.441406 0.453125 -0.453125 C 0.460938 -0.460938 0.46875 -0.476562 0.46875 -0.5 C 0.46875 -0.53125 0.457031 -0.550781 0.4375 -0.5625 C 0.414062 -0.582031 0.382812 -0.59375 0.34375 -0.59375 C 0.300781 -0.59375 0.265625 -0.582031 0.234375 -0.5625 C 0.203125 -0.550781 0.171875 -0.53125 0.140625 -0.5 L 0.09375 -0.5625 C 0.113281 -0.59375 0.144531 -0.617188 0.1875 -0.640625 C 0.238281 -0.660156 0.289062 -0.671875 0.34375 -0.671875 C 0.414062 -0.671875 0.472656 -0.65625 0.515625 -0.625 C 0.554688 -0.59375 0.578125 -0.546875 0.578125 -0.484375 L 0.578125 -0.125 C 0.578125 -0.09375 0.59375 -0.078125 0.625 -0.078125 C 0.632812 -0.078125 0.644531 -0.078125 0.65625 -0.078125 L 0.671875 -0.015625 C 0.660156 -0.00390625 0.648438 0 0.640625 0 C 0.628906 0 0.617188 0 0.609375 0 C 0.566406 0 0.535156 -0.00390625 0.515625 -0.015625 C 0.503906 -0.0351562 0.492188 -0.0625 0.484375 -0.09375 L 0.46875 -0.09375 C 0.445312 -0.0625 0.421875 -0.0351562 0.390625 -0.015625 C 0.359375 0.00390625 0.320312 0.015625 0.28125 0.015625 Z M 0.296875 -0.0625 C 0.328125 -0.0625 0.359375 -0.0664062 0.390625 -0.078125 C 0.421875 -0.0976562 0.441406 -0.125 0.453125 -0.15625 C 0.460938 -0.1875 0.46875 -0.222656 0.46875 -0.265625 L 0.46875 -0.359375 C 0.445312 -0.347656 0.425781 -0.335938 0.40625 -0.328125 C 0.382812 -0.328125 0.359375 -0.320312 0.328125 -0.3125 C 0.285156 -0.300781 0.25 -0.289062 0.21875 -0.28125 C 0.195312 -0.269531 0.179688 -0.253906 0.171875 -0.234375 C 0.171875 -0.222656 0.171875 -0.207031 0.171875 -0.1875 C 0.171875 -0.144531 0.179688 -0.113281 0.203125 -0.09375 C 0.222656 -0.0703125 0.253906 -0.0625 0.296875 -0.0625 Z M 0.296875 -0.0625 "/></g></g></g></g><g fill="#ffda45" fill-opacity="1"><g transform="translate(4.61443, 1.676148)"><g><path d="M 0.109375 0 L 0.109375 -0.671875 L 0.203125 -0.671875 L 0.203125 -0.5625 L 0.21875 -0.5625 C 0.25 -0.632812 0.304688 -0.671875 0.390625 -0.671875 C 0.441406 -0.671875 0.476562 -0.660156 0.5 -0.640625 L 0.46875 -0.5625 C 0.4375 -0.570312 0.40625 -0.578125 0.375 -0.578125 C 0.320312 -0.578125 0.28125 -0.554688 0.25 -0.515625 C 0.226562 -0.472656 0.21875 -0.410156 0.21875 -0.328125 L 0.21875 0 Z M 0.109375 0 "/></g></g></g><g clip-path="url(#5e08001545)"><g fill="#ffda45" fill-opacity="1"><g transform="translate(5.116002, 1.676148)"><g><path d="M 0.28125 0.015625 C 0.207031 0.015625 0.148438 0 0.109375 -0.03125 C 0.078125 -0.0703125 0.0625 -0.125 0.0625 -0.1875 C 0.0625 -0.226562 0.0664062 -0.257812 0.078125 -0.28125 C 0.0976562 -0.3125 0.125 -0.332031 0.15625 -0.34375 C 0.195312 -0.363281 0.242188 -0.378906 0.296875 -0.390625 C 0.347656 -0.398438 0.382812 -0.410156 0.40625 -0.421875 C 0.4375 -0.429688 0.453125 -0.441406 0.453125 -0.453125 C 0.460938 -0.460938 0.46875 -0.476562 0.46875 -0.5 C 0.46875 -0.53125 0.457031 -0.550781 0.4375 -0.5625 C 0.414062 -0.582031 0.382812 -0.59375 0.34375 -0.59375 C 0.300781 -0.59375 0.265625 -0.582031 0.234375 -0.5625 C 0.203125 -0.550781 0.171875 -0.53125 0.140625 -0.5 L 0.09375 -0.5625 C 0.113281 -0.59375 0.144531 -0.617188 0.1875 -0.640625 C 0.238281 -0.660156 0.289062 -0.671875 0.34375 -0.671875 C 0.414062 -0.671875 0.472656 -0.65625 0.515625 -0.625 C 0.554688 -0.59375 0.578125 -0.546875 0.578125 -0.484375 L 0.578125 -0.125 C 0.578125 -0.09375 0.59375 -0.078125 0.625 -0.078125 C 0.632812 -0.078125 0.644531 -0.078125 0.65625 -0.078125 L 0.671875 -0.015625 C 0.660156 -0.00390625 0.648438 0 0.640625 0 C 0.628906 0 0.617188 0 0.609375 0 C 0.566406 0 0.535156 -0.00390625 0.515625 -0.015625 C 0.503906 -0.0351562 0.492188 -0.0625 0.484375 -0.09375 L 0.46875 -0.09375 C 0.445312 -0.0625 0.421875 -0.0351562 0.390625 -0.015625 C 0.359375 0.00390625 0.320312 0.015625 0.28125 0.015625 Z M 0.296875 -0.0625 C 0.328125 -0.0625 0.359375 -0.0664062 0.390625 -0.078125 C 0.421875 -0.0976562 0.441406 -0.125 0.453125 -0.15625 C 0.460938 -0.1875 0.46875 -0.222656 0.46875 -0.265625 L 0.46875 -0.359375 C 0.445312 -0.347656 0.425781 -0.335938 0.40625 -0.328125 C 0.382812 -0.328125 0.359375 -0.320312 0.328125 -0.3125 C 0.285156 -0.300781 0.25 -0.289062 0.21875 -0.28125 C 0.195312 -0.269531 0.179688 -0.253906 0.171875 -0.234375 C 0.171875 -0.222656 0.171875 -0.207031 0.171875 -0.1875 C 0.171875 -0.144531 0.179688 -0.113281 0.203125 -0.09375 C 0.222656 -0.0703125 0.253906 -0.0625 0.296875 -0.0625 Z M 0.296875 -0.0625 "/></g></g></g></g><g clip-path="url(#192f83cc95)"><g fill="#ffda45" fill-opacity="1"><g transform="translate(5.804685, 1.676148)"><g><path d="M 0.34375 0.28125 C 0.238281 0.28125 0.160156 0.257812 0.109375 0.21875 C 0.0664062 0.1875 0.046875 0.144531 0.046875 0.09375 C 0.046875 0.0507812 0.0546875 0.0195312 0.078125 0 C 0.0976562 -0.0195312 0.128906 -0.0351562 0.171875 -0.046875 L 0.171875 -0.0625 C 0.148438 -0.0703125 0.132812 -0.0820312 0.125 -0.09375 C 0.113281 -0.113281 0.109375 -0.132812 0.109375 -0.15625 C 0.109375 -0.175781 0.113281 -0.195312 0.125 -0.21875 C 0.144531 -0.238281 0.171875 -0.25 0.203125 -0.25 L 0.203125 -0.265625 C 0.128906 -0.304688 0.09375 -0.367188 0.09375 -0.453125 C 0.09375 -0.492188 0.101562 -0.53125 0.125 -0.5625 C 0.144531 -0.601562 0.171875 -0.628906 0.203125 -0.640625 C 0.242188 -0.660156 0.289062 -0.671875 0.34375 -0.671875 C 0.394531 -0.671875 0.441406 -0.660156 0.484375 -0.640625 C 0.492188 -0.660156 0.5 -0.675781 0.5 -0.6875 C 0.507812 -0.707031 0.519531 -0.726562 0.53125 -0.75 L 0.53125 -0.765625 L 0.625 -0.734375 C 0.613281 -0.703125 0.597656 -0.675781 0.578125 -0.65625 C 0.566406 -0.632812 0.546875 -0.613281 0.515625 -0.59375 L 0.515625 -0.578125 C 0.535156 -0.566406 0.550781 -0.546875 0.5625 -0.515625 C 0.570312 -0.492188 0.578125 -0.472656 0.578125 -0.453125 C 0.578125 -0.398438 0.566406 -0.359375 0.546875 -0.328125 C 0.523438 -0.296875 0.492188 -0.269531 0.453125 -0.25 C 0.421875 -0.226562 0.382812 -0.21875 0.34375 -0.21875 C 0.332031 -0.21875 0.320312 -0.222656 0.3125 -0.234375 C 0.289062 -0.234375 0.28125 -0.234375 0.28125 -0.234375 C 0.257812 -0.234375 0.238281 -0.222656 0.21875 -0.203125 C 0.207031 -0.191406 0.203125 -0.179688 0.203125 -0.171875 C 0.203125 -0.148438 0.207031 -0.132812 0.21875 -0.125 C 0.238281 -0.113281 0.265625 -0.109375 0.296875 -0.109375 L 0.453125 -0.109375 C 0.515625 -0.0976562 0.5625 -0.078125 0.59375 -0.046875 C 0.632812 -0.0234375 0.65625 0.0078125 0.65625 0.0625 C 0.65625 0.101562 0.644531 0.140625 0.625 0.171875 C 0.601562 0.203125 0.566406 0.226562 0.515625 0.25 C 0.472656 0.269531 0.414062 0.28125 0.34375 0.28125 Z M 0.34375 -0.3125 C 0.382812 -0.3125 0.414062 -0.320312 0.4375 -0.34375 C 0.46875 -0.375 0.484375 -0.410156 0.484375 -0.453125 C 0.484375 -0.492188 0.46875 -0.523438 0.4375 -0.546875 C 0.414062 -0.578125 0.382812 -0.59375 0.34375 -0.59375 C 0.289062 -0.59375 0.25 -0.578125 0.21875 -0.546875 C 0.195312 -0.523438 0.1875 -0.492188 0.1875 -0.453125 C 0.1875 -0.398438 0.195312 -0.363281 0.21875 -0.34375 C 0.25 -0.320312 0.289062 -0.3125 0.34375 -0.3125 Z M 0.34375 0.203125 C 0.394531 0.203125 0.4375 0.195312 0.46875 0.1875 C 0.5 0.175781 0.519531 0.160156 0.53125 0.140625 C 0.539062 0.117188 0.546875 0.0976562 0.546875 0.078125 C 0.546875 0.0546875 0.539062 0.0390625 0.53125 0.03125 C 0.53125 0.0195312 0.519531 0.0078125 0.5 0 C 0.488281 0 0.46875 -0.00390625 0.4375 -0.015625 L 0.265625 -0.015625 C 0.179688 -0.015625 0.140625 0.015625 0.140625 0.078125 C 0.140625 0.160156 0.207031 0.203125 0.34375 0.203125 Z M 0.34375 0.203125 "/></g></g></g></g><g fill="#ffda45" fill-opacity="1"><g transform="translate(6.486728, 1.676148)"><g><path d="M 0.109375 0 L 0.109375 -0.671875 L 0.203125 -0.671875 L 0.203125 -0.5625 L 0.21875 -0.5625 C 0.25 -0.632812 0.304688 -0.671875 0.390625 -0.671875 C 0.441406 -0.671875 0.476562 -0.660156 0.5 -0.640625 L 0.46875 -0.5625 C 0.4375 -0.570312 0.40625 -0.578125 0.375 -0.578125 C 0.320312 -0.578125 0.28125 -0.554688 0.25 -0.515625 C 0.226562 -0.472656 0.21875 -0.410156 0.21875 -0.328125 L 0.21875 0 Z M 0.109375 0 "/></g></g></g><g clip-path="url(#44ad70fd28)"><g fill="#ffda45" fill-opacity="1"><g transform="translate(6.9883, 1.676148)"><g><path d="M 0.28125 0.015625 C 0.207031 0.015625 0.148438 0 0.109375 -0.03125 C 0.078125 -0.0703125 0.0625 -0.125 0.0625 -0.1875 C 0.0625 -0.226562 0.0664062 -0.257812 0.078125 -0.28125 C 0.0976562 -0.3125 0.125 -0.332031 0.15625 -0.34375 C 0.195312 -0.363281 0.242188 -0.378906 0.296875 -0.390625 C 0.347656 -0.398438 0.382812 -0.410156 0.40625 -0.421875 C 0.4375 -0.429688 0.453125 -0.441406 0.453125 -0.453125 C 0.460938 -0.460938 0.46875 -0.476562 0.46875 -0.5 C 0.46875 -0.53125 0.457031 -0.550781 0.4375 -0.5625 C 0.414062 -0.582031 0.382812 -0.59375 0.34375 -0.59375 C 0.300781 -0.59375 0.265625 -0.582031 0.234375 -0.5625 C 0.203125 -0.550781 0.171875 -0.53125 0.140625 -0.5 L 0.09375 -0.5625 C 0.113281 -0.59375 0.144531 -0.617188 0.1875 -0.640625 C 0.238281 -0.660156 0.289062 -0.671875 0.34375 -0.671875 C 0.414062 -0.671875 0.472656 -0.65625 0.515625 -0.625 C 0.554688 -0.59375 0.578125 -0.546875 0.578125 -0.484375 L 0.578125 -0.125 C 0.578125 -0.09375 0.59375 -0.078125 0.625 -0.078125 C 0.632812 -0.078125 0.644531 -0.078125 0.65625 -0.078125 L 0.671875 -0.015625 C 0.660156 -0.00390625 0.648438 0 0.640625 0 C 0.628906 0 0.617188 0 0.609375 0 C 0.566406 0 0.535156 -0.00390625 0.515625 -0.015625 C 0.503906 -0.0351562 0.492188 -0.0625 0.484375 -0.09375 L 0.46875 -0.09375 C 0.445312 -0.0625 0.421875 -0.0351562 0.390625 -0.015625 C 0.359375 0.00390625 0.320312 0.015625 0.28125 0.015625 Z M 0.296875 -0.0625 C 0.328125 -0.0625 0.359375 -0.0664062 0.390625 -0.078125 C 0.421875 -0.0976562 0.441406 -0.125 0.453125 -0.15625 C 0.460938 -0.1875 0.46875 -0.222656 0.46875 -0.265625 L 0.46875 -0.359375 C 0.445312 -0.347656 0.425781 -0.335938 0.40625 -0.328125 C 0.382812 -0.328125 0.359375 -0.320312 0.328125 -0.3125 C 0.285156 -0.300781 0.25 -0.289062 0.21875 -0.28125 C 0.195312 -0.269531 0.179688 -0.253906 0.171875 -0.234375 C 0.171875 -0.222656 0.171875 -0.207031 0.171875 -0.1875 C 0.171875 -0.144531 0.179688 -0.113281 0.203125 -0.09375 C 0.222656 -0.0703125 0.253906 -0.0625 0.296875 -0.0625 Z M 0.296875 -0.0625 "/></g></g></g></g><g clip-path="url(#24b7352b05)"><g fill="#ffda45" fill-opacity="1"><g transform="translate(7.676982, 1.676148)"><g><path d="M 0.109375 0.265625 L 0.109375 -0.671875 L 0.21875 -0.671875 L 0.21875 -0.5625 L 0.234375 -0.5625 C 0.273438 -0.632812 0.34375 -0.671875 0.4375 -0.671875 C 0.5 -0.671875 0.550781 -0.65625 0.59375 -0.625 C 0.632812 -0.601562 0.664062 -0.566406 0.6875 -0.515625 C 0.707031 -0.472656 0.71875 -0.410156 0.71875 -0.328125 C 0.71875 -0.253906 0.703125 -0.191406 0.671875 -0.140625 C 0.648438 -0.0859375 0.617188 -0.046875 0.578125 -0.015625 C 0.535156 0.00390625 0.488281 0.015625 0.4375 0.015625 C 0.394531 0.015625 0.351562 0.0078125 0.3125 0 C 0.28125 -0.0195312 0.253906 -0.0507812 0.234375 -0.09375 L 0.21875 -0.078125 L 0.21875 0.265625 Z M 0.421875 -0.078125 C 0.554688 -0.078125 0.625 -0.160156 0.625 -0.328125 C 0.625 -0.503906 0.554688 -0.59375 0.421875 -0.59375 C 0.378906 -0.59375 0.34375 -0.582031 0.3125 -0.5625 C 0.28125 -0.539062 0.253906 -0.507812 0.234375 -0.46875 C 0.222656 -0.4375 0.21875 -0.390625 0.21875 -0.328125 C 0.21875 -0.273438 0.222656 -0.226562 0.234375 -0.1875 C 0.253906 -0.144531 0.28125 -0.113281 0.3125 -0.09375 C 0.34375 -0.0820312 0.378906 -0.078125 0.421875 -0.078125 Z M 0.421875 -0.078125 "/></g></g></g></g><g clip-path="url(#6a963a67a8)"><g fill="#ffda45" fill-opacity="1"><g transform="translate(8.47129, 1.676148)"><g><path d="M 0.109375 0 L 0.109375 -0.9375 L 0.21875 -0.9375 L 0.21875 -0.5625 L 0.234375 -0.5625 C 0.273438 -0.632812 0.34375 -0.671875 0.4375 -0.671875 C 0.507812 -0.671875 0.5625 -0.648438 0.59375 -0.609375 C 0.632812 -0.578125 0.65625 -0.515625 0.65625 -0.421875 L 0.65625 0 L 0.5625 0 L 0.5625 -0.421875 C 0.5625 -0.460938 0.554688 -0.492188 0.546875 -0.515625 C 0.535156 -0.546875 0.519531 -0.566406 0.5 -0.578125 C 0.476562 -0.585938 0.453125 -0.59375 0.421875 -0.59375 C 0.359375 -0.59375 0.304688 -0.570312 0.265625 -0.53125 C 0.234375 -0.488281 0.21875 -0.425781 0.21875 -0.34375 L 0.21875 0 Z M 0.109375 0 "/></g></g></g></g><g fill="#ffda45" fill-opacity="1"><g transform="translate(9.237833, 1.676148)"><g/></g></g><g clip-path="url(#0dac9907e2)"><g fill="#ffda45" fill-opacity="1"><g transform="translate(9.54083, 1.676148)"><g><path d="M 0.453125 -0.109375 L 0.484375 -0.03125 C 0.460938 -0.0195312 0.4375 -0.0078125 0.40625 0 C 0.382812 0.0078125 0.363281 0.015625 0.34375 0.015625 C 0.207031 0.015625 0.140625 -0.0507812 0.140625 -0.1875 L 0.140625 -0.578125 L 0.03125 -0.578125 L 0.03125 -0.671875 L 0.140625 -0.671875 L 0.140625 -0.8125 L 0.25 -0.828125 L 0.25 -0.671875 L 0.453125 -0.671875 L 0.453125 -0.578125 L 0.25 -0.578125 L 0.25 -0.1875 C 0.25 -0.113281 0.28125 -0.078125 0.34375 -0.078125 C 0.375 -0.078125 0.40625 -0.0859375 0.4375 -0.109375 Z M 0.453125 -0.109375 "/></g></g></g></g><g clip-path="url(#f5210a258d)"><g fill="#ffda45" fill-opacity="1"><g transform="translate(10.039988, 1.676148)"><g><path d="M 0.640625 -0.3125 L 0.171875 -0.3125 C 0.179688 -0.226562 0.203125 -0.164062 0.234375 -0.125 C 0.265625 -0.09375 0.3125 -0.078125 0.375 -0.078125 C 0.425781 -0.078125 0.46875 -0.0820312 0.5 -0.09375 C 0.53125 -0.113281 0.550781 -0.144531 0.5625 -0.1875 L 0.578125 -0.1875 L 0.640625 -0.140625 C 0.617188 -0.0859375 0.585938 -0.046875 0.546875 -0.015625 C 0.503906 0.00390625 0.445312 0.015625 0.375 0.015625 C 0.3125 0.015625 0.253906 0.00390625 0.203125 -0.015625 C 0.160156 -0.046875 0.128906 -0.0859375 0.109375 -0.140625 C 0.0859375 -0.191406 0.078125 -0.253906 0.078125 -0.328125 C 0.078125 -0.410156 0.0859375 -0.472656 0.109375 -0.515625 C 0.140625 -0.566406 0.175781 -0.601562 0.21875 -0.625 C 0.257812 -0.65625 0.3125 -0.671875 0.375 -0.671875 C 0.457031 -0.671875 0.519531 -0.644531 0.5625 -0.59375 C 0.613281 -0.550781 0.644531 -0.484375 0.65625 -0.390625 C 0.65625 -0.359375 0.648438 -0.332031 0.640625 -0.3125 Z M 0.546875 -0.390625 C 0.546875 -0.460938 0.53125 -0.515625 0.5 -0.546875 C 0.46875 -0.578125 0.425781 -0.59375 0.375 -0.59375 C 0.320312 -0.59375 0.273438 -0.578125 0.234375 -0.546875 C 0.203125 -0.515625 0.179688 -0.460938 0.171875 -0.390625 Z M 0.546875 -0.390625 "/></g></g></g></g><g clip-path="url(#0e5a4daec1)"><g fill="#ffda45" fill-opacity="1"><g transform="translate(10.739534, 1.676148)"><g><path d="M 0.140625 0 L 0.03125 0 L 0.234375 -0.34375 L 0.046875 -0.671875 L 0.15625 -0.671875 L 0.3125 -0.40625 L 0.46875 -0.671875 L 0.578125 -0.671875 L 0.390625 -0.34375 L 0.59375 0 L 0.484375 0 L 0.3125 -0.28125 L 0.296875 -0.28125 Z M 0.140625 0 "/></g></g></g></g><g clip-path="url(#d955a932e1)"><g fill="#ffda45" fill-opacity="1"><g transform="translate(11.360012, 1.676148)"><g><path d="M 0.453125 -0.109375 L 0.484375 -0.03125 C 0.460938 -0.0195312 0.4375 -0.0078125 0.40625 0 C 0.382812 0.0078125 0.363281 0.015625 0.34375 0.015625 C 0.207031 0.015625 0.140625 -0.0507812 0.140625 -0.1875 L 0.140625 -0.578125 L 0.03125 -0.578125 L 0.03125 -0.671875 L 0.140625 -0.671875 L 0.140625 -0.8125 L 0.25 -0.828125 L 0.25 -0.671875 L 0.453125 -0.671875 L 0.453125 -0.578125 L 0.25 -0.578125 L 0.25 -0.1875 C 0.25 -0.113281 0.28125 -0.078125 0.34375 -0.078125 C 0.375 -0.078125 0.40625 -0.0859375 0.4375 -0.109375 Z M 0.453125 -0.109375 "/></g></g></g></g></g></g><g transform="matrix(1, 0, 0, 1, 14, 26)"><g clip-path="url(#15e6a62f55)"><g clip-path="url(#14a651047e)"><g fill="#ffda45" fill-opacity="1"><g transform="translate(0.866456, 1.335133)"><g><path d="M 0.4375 0 L 0.328125 0 L 0.328125 -0.34375 L 0.015625 -0.875 L 0.140625 -0.875 L 0.375 -0.46875 L 0.390625 -0.46875 L 0.625 -0.875 L 0.734375 -0.875 L 0.4375 -0.34375 Z M 0.4375 0 "/></g></g></g></g><g clip-path="url(#986b3d156d)"><g fill="#ffda45" fill-opacity="1"><g transform="translate(1.539444, 1.335133)"><g><path d="M 0.375 0.015625 C 0.3125 0.015625 0.253906 0.00390625 0.203125 -0.015625 C 0.160156 -0.046875 0.128906 -0.0859375 0.109375 -0.140625 C 0.0859375 -0.191406 0.078125 -0.253906 0.078125 -0.328125 C 0.078125 -0.398438 0.0859375 -0.460938 0.109375 -0.515625 C 0.128906 -0.566406 0.160156 -0.601562 0.203125 -0.625 C 0.253906 -0.65625 0.3125 -0.671875 0.375 -0.671875 C 0.4375 -0.671875 0.488281 -0.65625 0.53125 -0.625 C 0.582031 -0.601562 0.617188 -0.566406 0.640625 -0.515625 C 0.671875 -0.460938 0.6875 -0.398438 0.6875 -0.328125 C 0.6875 -0.253906 0.671875 -0.191406 0.640625 -0.140625 C 0.617188 -0.0859375 0.582031 -0.046875 0.53125 -0.015625 C 0.488281 0.00390625 0.4375 0.015625 0.375 0.015625 Z M 0.375 -0.078125 C 0.445312 -0.078125 0.5 -0.0976562 0.53125 -0.140625 C 0.570312 -0.179688 0.59375 -0.242188 0.59375 -0.328125 C 0.59375 -0.421875 0.570312 -0.488281 0.53125 -0.53125 C 0.5 -0.570312 0.445312 -0.59375 0.375 -0.59375 C 0.3125 -0.59375 0.257812 -0.570312 0.21875 -0.53125 C 0.1875 -0.488281 0.171875 -0.421875 0.171875 -0.328125 C 0.171875 -0.242188 0.1875 -0.179688 0.21875 -0.140625 C 0.257812 -0.0976562 0.3125 -0.078125 0.375 -0.078125 Z M 0.375 -0.078125 "/></g></g></g></g><g clip-path="url(#a953f5237a)"><g fill="#ffda45" fill-opacity="1"><g transform="translate(2.303573, 1.335133)"><g><path d="M 0.328125 0.015625 C 0.253906 0.015625 0.195312 -0.00390625 0.15625 -0.046875 C 0.125 -0.0859375 0.109375 -0.144531 0.109375 -0.21875 L 0.109375 -0.671875 L 0.203125 -0.671875 L 0.203125 -0.21875 C 0.203125 -0.125 0.25 -0.078125 0.34375 -0.078125 C 0.40625 -0.078125 0.453125 -0.09375 0.484375 -0.125 C 0.523438 -0.164062 0.546875 -0.234375 0.546875 -0.328125 L 0.546875 -0.671875 L 0.640625 -0.671875 L 0.640625 0 L 0.546875 0 L 0.546875 -0.109375 L 0.53125 -0.109375 C 0.507812 -0.0664062 0.484375 -0.0351562 0.453125 -0.015625 C 0.421875 0.00390625 0.378906 0.015625 0.328125 0.015625 Z M 0.328125 0.015625 "/></g></g></g></g><g clip-path="url(#58060e46db)"><g fill="#ffda45" fill-opacity="1"><g transform="translate(3.059856, 1.335133)"><g><path d="M 0.109375 0 L 0.109375 -0.671875 L 0.203125 -0.671875 L 0.203125 -0.5625 L 0.21875 -0.5625 C 0.25 -0.632812 0.304688 -0.671875 0.390625 -0.671875 C 0.441406 -0.671875 0.476562 -0.660156 0.5 -0.640625 L 0.46875 -0.5625 C 0.4375 -0.570312 0.40625 -0.578125 0.375 -0.578125 C 0.320312 -0.578125 0.28125 -0.554688 0.25 -0.515625 C 0.226562 -0.472656 0.21875 -0.410156 0.21875 -0.328125 L 0.21875 0 Z M 0.109375 0 "/></g></g></g></g><g clip-path="url(#209d8ee069)"><g fill="#ffda45" fill-opacity="1"><g transform="translate(3.574104, 1.335133)"><g/></g></g></g><g clip-path="url(#345a27daa8)"><g fill="#ffda45" fill-opacity="1"><g transform="translate(3.8771, 1.335133)"><g><path d="M 0.109375 0.265625 L 0.109375 -0.671875 L 0.21875 -0.671875 L 0.21875 -0.5625 L 0.234375 -0.5625 C 0.273438 -0.632812 0.34375 -0.671875 0.4375 -0.671875 C 0.5 -0.671875 0.550781 -0.65625 0.59375 -0.625 C 0.632812 -0.601562 0.664062 -0.566406 0.6875 -0.515625 C 0.707031 -0.472656 0.71875 -0.410156 0.71875 -0.328125 C 0.71875 -0.253906 0.703125 -0.191406 0.671875 -0.140625 C 0.648438 -0.0859375 0.617188 -0.046875 0.578125 -0.015625 C 0.535156 0.00390625 0.488281 0.015625 0.4375 0.015625 C 0.394531 0.015625 0.351562 0.0078125 0.3125 0 C 0.28125 -0.0195312 0.253906 -0.0507812 0.234375 -0.09375 L 0.21875 -0.078125 L 0.21875 0.265625 Z M 0.421875 -0.078125 C 0.554688 -0.078125 0.625 -0.160156 0.625 -0.328125 C 0.625 -0.503906 0.554688 -0.59375 0.421875 -0.59375 C 0.378906 -0.59375 0.34375 -0.582031 0.3125 -0.5625 C 0.28125 -0.539062 0.253906 -0.507812 0.234375 -0.46875 C 0.222656 -0.4375 0.21875 -0.390625 0.21875 -0.328125 C 0.21875 -0.273438 0.222656 -0.226562 0.234375 -0.1875 C 0.253906 -0.144531 0.28125 -0.113281 0.3125 -0.09375 C 0.34375 -0.0820312 0.378906 -0.078125 0.421875 -0.078125 Z M 0.421875 -0.078125 "/></g></g></g></g><g clip-path="url(#8c95afc869)"><g fill="#ffda45" fill-opacity="1"><g transform="translate(4.671408, 1.335133)"><g><path d="M 0.28125 0.015625 C 0.207031 0.015625 0.148438 0 0.109375 -0.03125 C 0.078125 -0.0703125 0.0625 -0.125 0.0625 -0.1875 C 0.0625 -0.226562 0.0664062 -0.257812 0.078125 -0.28125 C 0.0976562 -0.3125 0.125 -0.332031 0.15625 -0.34375 C 0.195312 -0.363281 0.242188 -0.378906 0.296875 -0.390625 C 0.347656 -0.398438 0.382812 -0.410156 0.40625 -0.421875 C 0.4375 -0.429688 0.453125 -0.441406 0.453125 -0.453125 C 0.460938 -0.460938 0.46875 -0.476562 0.46875 -0.5 C 0.46875 -0.53125 0.457031 -0.550781 0.4375 -0.5625 C 0.414062 -0.582031 0.382812 -0.59375 0.34375 -0.59375 C 0.300781 -0.59375 0.265625 -0.582031 0.234375 -0.5625 C 0.203125 -0.550781 0.171875 -0.53125 0.140625 -0.5 L 0.09375 -0.5625 C 0.113281 -0.59375 0.144531 -0.617188 0.1875 -0.640625 C 0.238281 -0.660156 0.289062 -0.671875 0.34375 -0.671875 C 0.414062 -0.671875 0.472656 -0.65625 0.515625 -0.625 C 0.554688 -0.59375 0.578125 -0.546875 0.578125 -0.484375 L 0.578125 -0.125 C 0.578125 -0.09375 0.59375 -0.078125 0.625 -0.078125 C 0.632812 -0.078125 0.644531 -0.078125 0.65625 -0.078125 L 0.671875 -0.015625 C 0.660156 -0.00390625 0.648438 0 0.640625 0 C 0.628906 0 0.617188 0 0.609375 0 C 0.566406 0 0.535156 -0.00390625 0.515625 -0.015625 C 0.503906 -0.0351562 0.492188 -0.0625 0.484375 -0.09375 L 0.46875 -0.09375 C 0.445312 -0.0625 0.421875 -0.0351562 0.390625 -0.015625 C 0.359375 0.00390625 0.320312 0.015625 0.28125 0.015625 Z M 0.296875 -0.0625 C 0.328125 -0.0625 0.359375 -0.0664062 0.390625 -0.078125 C 0.421875 -0.0976562 0.441406 -0.125 0.453125 -0.15625 C 0.460938 -0.1875 0.46875 -0.222656 0.46875 -0.265625 L 0.46875 -0.359375 C 0.445312 -0.347656 0.425781 -0.335938 0.40625 -0.328125 C 0.382812 -0.328125 0.359375 -0.320312 0.328125 -0.3125 C 0.285156 -0.300781 0.25 -0.289062 0.21875 -0.28125 C 0.195312 -0.269531 0.179688 -0.253906 0.171875 -0.234375 C 0.171875 -0.222656 0.171875 -0.207031 0.171875 -0.1875 C 0.171875 -0.144531 0.179688 -0.113281 0.203125 -0.09375 C 0.222656 -0.0703125 0.253906 -0.0625 0.296875 -0.0625 Z M 0.296875 -0.0625 "/></g></g></g></g><g clip-path="url(#297cb524a1)"><g fill="#ffda45" fill-opacity="1"><g transform="translate(5.36009, 1.335133)"><g><path d="M 0.109375 0 L 0.109375 -0.671875 L 0.203125 -0.671875 L 0.203125 -0.5625 L 0.21875 -0.5625 C 0.25 -0.632812 0.304688 -0.671875 0.390625 -0.671875 C 0.441406 -0.671875 0.476562 -0.660156 0.5 -0.640625 L 0.46875 -0.5625 C 0.4375 -0.570312 0.40625 -0.578125 0.375 -0.578125 C 0.320312 -0.578125 0.28125 -0.554688 0.25 -0.515625 C 0.226562 -0.472656 0.21875 -0.410156 0.21875 -0.328125 L 0.21875 0 Z M 0.109375 0 "/></g></g></g></g><g clip-path="url(#9c1f77ca26)"><g fill="#ffda45" fill-opacity="1"><g transform="translate(5.861662, 1.335133)"><g><path d="M 0.28125 0.015625 C 0.207031 0.015625 0.148438 0 0.109375 -0.03125 C 0.078125 -0.0703125 0.0625 -0.125 0.0625 -0.1875 C 0.0625 -0.226562 0.0664062 -0.257812 0.078125 -0.28125 C 0.0976562 -0.3125 0.125 -0.332031 0.15625 -0.34375 C 0.195312 -0.363281 0.242188 -0.378906 0.296875 -0.390625 C 0.347656 -0.398438 0.382812 -0.410156 0.40625 -0.421875 C 0.4375 -0.429688 0.453125 -0.441406 0.453125 -0.453125 C 0.460938 -0.460938 0.46875 -0.476562 0.46875 -0.5 C 0.46875 -0.53125 0.457031 -0.550781 0.4375 -0.5625 C 0.414062 -0.582031 0.382812 -0.59375 0.34375 -0.59375 C 0.300781 -0.59375 0.265625 -0.582031 0.234375 -0.5625 C 0.203125 -0.550781 0.171875 -0.53125 0.140625 -0.5 L 0.09375 -0.5625 C 0.113281 -0.59375 0.144531 -0.617188 0.1875 -0.640625 C 0.238281 -0.660156 0.289062 -0.671875 0.34375 -0.671875 C 0.414062 -0.671875 0.472656 -0.65625 0.515625 -0.625 C 0.554688 -0.59375 0.578125 -0.546875 0.578125 -0.484375 L 0.578125 -0.125 C 0.578125 -0.09375 0.59375 -0.078125 0.625 -0.078125 C 0.632812 -0.078125 0.644531 -0.078125 0.65625 -0.078125 L 0.671875 -0.015625 C 0.660156 -0.00390625 0.648438 0 0.640625 0 C 0.628906 0 0.617188 0 0.609375 0 C 0.566406 0 0.535156 -0.00390625 0.515625 -0.015625 C 0.503906 -0.0351562 0.492188 -0.0625 0.484375 -0.09375 L 0.46875 -0.09375 C 0.445312 -0.0625 0.421875 -0.0351562 0.390625 -0.015625 C 0.359375 0.00390625 0.320312 0.015625 0.28125 0.015625 Z M 0.296875 -0.0625 C 0.328125 -0.0625 0.359375 -0.0664062 0.390625 -0.078125 C 0.421875 -0.0976562 0.441406 -0.125 0.453125 -0.15625 C 0.460938 -0.1875 0.46875 -0.222656 0.46875 -0.265625 L 0.46875 -0.359375 C 0.445312 -0.347656 0.425781 -0.335938 0.40625 -0.328125 C 0.382812 -0.328125 0.359375 -0.320312 0.328125 -0.3125 C 0.285156 -0.300781 0.25 -0.289062 0.21875 -0.28125 C 0.195312 -0.269531 0.179688 -0.253906 0.171875 -0.234375 C 0.171875 -0.222656 0.171875 -0.207031 0.171875 -0.1875 C 0.171875 -0.144531 0.179688 -0.113281 0.203125 -0.09375 C 0.222656 -0.0703125 0.253906 -0.0625 0.296875 -0.0625 Z M 0.296875 -0.0625 "/></g></g></g></g><g clip-path="url(#f2acc13613)"><g fill="#ffda45" fill-opacity="1"><g transform="translate(6.550344, 1.335133)"><g><path d="M 0.34375 0.28125 C 0.238281 0.28125 0.160156 0.257812 0.109375 0.21875 C 0.0664062 0.1875 0.046875 0.144531 0.046875 0.09375 C 0.046875 0.0507812 0.0546875 0.0195312 0.078125 0 C 0.0976562 -0.0195312 0.128906 -0.0351562 0.171875 -0.046875 L 0.171875 -0.0625 C 0.148438 -0.0703125 0.132812 -0.0820312 0.125 -0.09375 C 0.113281 -0.113281 0.109375 -0.132812 0.109375 -0.15625 C 0.109375 -0.175781 0.113281 -0.195312 0.125 -0.21875 C 0.144531 -0.238281 0.171875 -0.25 0.203125 -0.25 L 0.203125 -0.265625 C 0.128906 -0.304688 0.09375 -0.367188 0.09375 -0.453125 C 0.09375 -0.492188 0.101562 -0.53125 0.125 -0.5625 C 0.144531 -0.601562 0.171875 -0.628906 0.203125 -0.640625 C 0.242188 -0.660156 0.289062 -0.671875 0.34375 -0.671875 C 0.394531 -0.671875 0.441406 -0.660156 0.484375 -0.640625 C 0.492188 -0.660156 0.5 -0.675781 0.5 -0.6875 C 0.507812 -0.707031 0.519531 -0.726562 0.53125 -0.75 L 0.53125 -0.765625 L 0.625 -0.734375 C 0.613281 -0.703125 0.597656 -0.675781 0.578125 -0.65625 C 0.566406 -0.632812 0.546875 -0.613281 0.515625 -0.59375 L 0.515625 -0.578125 C 0.535156 -0.566406 0.550781 -0.546875 0.5625 -0.515625 C 0.570312 -0.492188 0.578125 -0.472656 0.578125 -0.453125 C 0.578125 -0.398438 0.566406 -0.359375 0.546875 -0.328125 C 0.523438 -0.296875 0.492188 -0.269531 0.453125 -0.25 C 0.421875 -0.226562 0.382812 -0.21875 0.34375 -0.21875 C 0.332031 -0.21875 0.320312 -0.222656 0.3125 -0.234375 C 0.289062 -0.234375 0.28125 -0.234375 0.28125 -0.234375 C 0.257812 -0.234375 0.238281 -0.222656 0.21875 -0.203125 C 0.207031 -0.191406 0.203125 -0.179688 0.203125 -0.171875 C 0.203125 -0.148438 0.207031 -0.132812 0.21875 -0.125 C 0.238281 -0.113281 0.265625 -0.109375 0.296875 -0.109375 L 0.453125 -0.109375 C 0.515625 -0.0976562 0.5625 -0.078125 0.59375 -0.046875 C 0.632812 -0.0234375 0.65625 0.0078125 0.65625 0.0625 C 0.65625 0.101562 0.644531 0.140625 0.625 0.171875 C 0.601562 0.203125 0.566406 0.226562 0.515625 0.25 C 0.472656 0.269531 0.414062 0.28125 0.34375 0.28125 Z M 0.34375 -0.3125 C 0.382812 -0.3125 0.414062 -0.320312 0.4375 -0.34375 C 0.46875 -0.375 0.484375 -0.410156 0.484375 -0.453125 C 0.484375 -0.492188 0.46875 -0.523438 0.4375 -0.546875 C 0.414062 -0.578125 0.382812 -0.59375 0.34375 -0.59375 C 0.289062 -0.59375 0.25 -0.578125 0.21875 -0.546875 C 0.195312 -0.523438 0.1875 -0.492188 0.1875 -0.453125 C 0.1875 -0.398438 0.195312 -0.363281 0.21875 -0.34375 C 0.25 -0.320312 0.289062 -0.3125 0.34375 -0.3125 Z M 0.34375 0.203125 C 0.394531 0.203125 0.4375 0.195312 0.46875 0.1875 C 0.5 0.175781 0.519531 0.160156 0.53125 0.140625 C 0.539062 0.117188 0.546875 0.0976562 0.546875 0.078125 C 0.546875 0.0546875 0.539062 0.0390625 0.53125 0.03125 C 0.53125 0.0195312 0.519531 0.0078125 0.5 0 C 0.488281 0 0.46875 -0.00390625 0.4375 -0.015625 L 0.265625 -0.015625 C 0.179688 -0.015625 0.140625 0.015625 0.140625 0.078125 C 0.140625 0.160156 0.207031 0.203125 0.34375 0.203125 Z M 0.34375 0.203125 "/></g></g></g></g><g clip-path="url(#8d157d20e7)"><g fill="#ffda45" fill-opacity="1"><g transform="translate(7.232387, 1.335133)"><g><path d="M 0.109375 0 L 0.109375 -0.671875 L 0.203125 -0.671875 L 0.203125 -0.5625 L 0.21875 -0.5625 C 0.25 -0.632812 0.304688 -0.671875 0.390625 -0.671875 C 0.441406 -0.671875 0.476562 -0.660156 0.5 -0.640625 L 0.46875 -0.5625 C 0.4375 -0.570312 0.40625 -0.578125 0.375 -0.578125 C 0.320312 -0.578125 0.28125 -0.554688 0.25 -0.515625 C 0.226562 -0.472656 0.21875 -0.410156 0.21875 -0.328125 L 0.21875 0 Z M 0.109375 0 "/></g></g></g></g><g clip-path="url(#46a7769d62)"><g fill="#ffda45" fill-opacity="1"><g transform="translate(7.73396, 1.335133)"><g><path d="M 0.28125 0.015625 C 0.207031 0.015625 0.148438 0 0.109375 -0.03125 C 0.078125 -0.0703125 0.0625 -0.125 0.0625 -0.1875 C 0.0625 -0.226562 0.0664062 -0.257812 0.078125 -0.28125 C 0.0976562 -0.3125 0.125 -0.332031 0.15625 -0.34375 C 0.195312 -0.363281 0.242188 -0.378906 0.296875 -0.390625 C 0.347656 -0.398438 0.382812 -0.410156 0.40625 -0.421875 C 0.4375 -0.429688 0.453125 -0.441406 0.453125 -0.453125 C 0.460938 -0.460938 0.46875 -0.476562 0.46875 -0.5 C 0.46875 -0.53125 0.457031 -0.550781 0.4375 -0.5625 C 0.414062 -0.582031 0.382812 -0.59375 0.34375 -0.59375 C 0.300781 -0.59375 0.265625 -0.582031 0.234375 -0.5625 C 0.203125 -0.550781 0.171875 -0.53125 0.140625 -0.5 L 0.09375 -0.5625 C 0.113281 -0.59375 0.144531 -0.617188 0.1875 -0.640625 C 0.238281 -0.660156 0.289062 -0.671875 0.34375 -0.671875 C 0.414062 -0.671875 0.472656 -0.65625 0.515625 -0.625 C 0.554688 -0.59375 0.578125 -0.546875 0.578125 -0.484375 L 0.578125 -0.125 C 0.578125 -0.09375 0.59375 -0.078125 0.625 -0.078125 C 0.632812 -0.078125 0.644531 -0.078125 0.65625 -0.078125 L 0.671875 -0.015625 C 0.660156 -0.00390625 0.648438 0 0.640625 0 C 0.628906 0 0.617188 0 0.609375 0 C 0.566406 0 0.535156 -0.00390625 0.515625 -0.015625 C 0.503906 -0.0351562 0.492188 -0.0625 0.484375 -0.09375 L 0.46875 -0.09375 C 0.445312 -0.0625 0.421875 -0.0351562 0.390625 -0.015625 C 0.359375 0.00390625 0.320312 0.015625 0.28125 0.015625 Z M 0.296875 -0.0625 C 0.328125 -0.0625 0.359375 -0.0664062 0.390625 -0.078125 C 0.421875 -0.0976562 0.441406 -0.125 0.453125 -0.15625 C 0.460938 -0.1875 0.46875 -0.222656 0.46875 -0.265625 L 0.46875 -0.359375 C 0.445312 -0.347656 0.425781 -0.335938 0.40625 -0.328125 C 0.382812 -0.328125 0.359375 -0.320312 0.328125 -0.3125 C 0.285156 -0.300781 0.25 -0.289062 0.21875 -0.28125 C 0.195312 -0.269531 0.179688 -0.253906 0.171875 -0.234375 C 0.171875 -0.222656 0.171875 -0.207031 0.171875 -0.1875 C 0.171875 -0.144531 0.179688 -0.113281 0.203125 -0.09375 C 0.222656 -0.0703125 0.253906 -0.0625 0.296875 -0.0625 Z M 0.296875 -0.0625 "/></g></g></g></g><g clip-path="url(#52fb1f02ac)"><g fill="#ffda45" fill-opacity="1"><g transform="translate(8.422642, 1.335133)"><g><path d="M 0.109375 0.265625 L 0.109375 -0.671875 L 0.21875 -0.671875 L 0.21875 -0.5625 L 0.234375 -0.5625 C 0.273438 -0.632812 0.34375 -0.671875 0.4375 -0.671875 C 0.5 -0.671875 0.550781 -0.65625 0.59375 -0.625 C 0.632812 -0.601562 0.664062 -0.566406 0.6875 -0.515625 C 0.707031 -0.472656 0.71875 -0.410156 0.71875 -0.328125 C 0.71875 -0.253906 0.703125 -0.191406 0.671875 -0.140625 C 0.648438 -0.0859375 0.617188 -0.046875 0.578125 -0.015625 C 0.535156 0.00390625 0.488281 0.015625 0.4375 0.015625 C 0.394531 0.015625 0.351562 0.0078125 0.3125 0 C 0.28125 -0.0195312 0.253906 -0.0507812 0.234375 -0.09375 L 0.21875 -0.078125 L 0.21875 0.265625 Z M 0.421875 -0.078125 C 0.554688 -0.078125 0.625 -0.160156 0.625 -0.328125 C 0.625 -0.503906 0.554688 -0.59375 0.421875 -0.59375 C 0.378906 -0.59375 0.34375 -0.582031 0.3125 -0.5625 C 0.28125 -0.539062 0.253906 -0.507812 0.234375 -0.46875 C 0.222656 -0.4375 0.21875 -0.390625 0.21875 -0.328125 C 0.21875 -0.273438 0.222656 -0.226562 0.234375 -0.1875 C 0.253906 -0.144531 0.28125 -0.113281 0.3125 -0.09375 C 0.34375 -0.0820312 0.378906 -0.078125 0.421875 -0.078125 Z M 0.421875 -0.078125 "/></g></g></g></g><g clip-path="url(#5680d8785b)"><g fill="#ffda45" fill-opacity="1"><g transform="translate(9.21695, 1.335133)"><g><path d="M 0.109375 0 L 0.109375 -0.9375 L 0.21875 -0.9375 L 0.21875 -0.5625 L 0.234375 -0.5625 C 0.273438 -0.632812 0.34375 -0.671875 0.4375 -0.671875 C 0.507812 -0.671875 0.5625 -0.648438 0.59375 -0.609375 C 0.632812 -0.578125 0.65625 -0.515625 0.65625 -0.421875 L 0.65625 0 L 0.5625 0 L 0.5625 -0.421875 C 0.5625 -0.460938 0.554688 -0.492188 0.546875 -0.515625 C 0.535156 -0.546875 0.519531 -0.566406 0.5 -0.578125 C 0.476562 -0.585938 0.453125 -0.59375 0.421875 -0.59375 C 0.359375 -0.59375 0.304688 -0.570312 0.265625 -0.53125 C 0.234375 -0.488281 0.21875 -0.425781 0.21875 -0.34375 L 0.21875 0 Z M 0.109375 0 "/></g></g></g></g><g clip-path="url(#9ffd3d2918)"><g fill="#ffda45" fill-opacity="1"><g transform="translate(9.983493, 1.335133)"><g/></g></g></g><g clip-path="url(#af8214bbc6)"><g fill="#ffda45" fill-opacity="1"><g transform="translate(10.286489, 1.335133)"><g><path d="M 0.453125 -0.109375 L 0.484375 -0.03125 C 0.460938 -0.0195312 0.4375 -0.0078125 0.40625 0 C 0.382812 0.0078125 0.363281 0.015625 0.34375 0.015625 C 0.207031 0.015625 0.140625 -0.0507812 0.140625 -0.1875 L 0.140625 -0.578125 L 0.03125 -0.578125 L 0.03125 -0.671875 L 0.140625 -0.671875 L 0.140625 -0.8125 L 0.25 -0.828125 L 0.25 -0.671875 L 0.453125 -0.671875 L 0.453125 -0.578125 L 0.25 -0.578125 L 0.25 -0.1875 C 0.25 -0.113281 0.28125 -0.078125 0.34375 -0.078125 C 0.375 -0.078125 0.40625 -0.0859375 0.4375 -0.109375 Z M 0.453125 -0.109375 "/></g></g></g></g><g clip-path="url(#44d108121d)"><g fill="#ffda45" fill-opacity="1"><g transform="translate(10.785648, 1.335133)"><g><path d="M 0.640625 -0.3125 L 0.171875 -0.3125 C 0.179688 -0.226562 0.203125 -0.164062 0.234375 -0.125 C 0.265625 -0.09375 0.3125 -0.078125 0.375 -0.078125 C 0.425781 -0.078125 0.46875 -0.0820312 0.5 -0.09375 C 0.53125 -0.113281 0.550781 -0.144531 0.5625 -0.1875 L 0.578125 -0.1875 L 0.640625 -0.140625 C 0.617188 -0.0859375 0.585938 -0.046875 0.546875 -0.015625 C 0.503906 0.00390625 0.445312 0.015625 0.375 0.015625 C 0.3125 0.015625 0.253906 0.00390625 0.203125 -0.015625 C 0.160156 -0.046875 0.128906 -0.0859375 0.109375 -0.140625 C 0.0859375 -0.191406 0.078125 -0.253906 0.078125 -0.328125 C 0.078125 -0.410156 0.0859375 -0.472656 0.109375 -0.515625 C 0.140625 -0.566406 0.175781 -0.601562 0.21875 -0.625 C 0.257812 -0.65625 0.3125 -0.671875 0.375 -0.671875 C 0.457031 -0.671875 0.519531 -0.644531 0.5625 -0.59375 C 0.613281 -0.550781 0.644531 -0.484375 0.65625 -0.390625 C 0.65625 -0.359375 0.648438 -0.332031 0.640625 -0.3125 Z M 0.546875 -0.390625 C 0.546875 -0.460938 0.53125 -0.515625 0.5 -0.546875 C 0.46875 -0.578125 0.425781 -0.59375 0.375 -0.59375 C 0.320312 -0.59375 0.273438 -0.578125 0.234375 -0.546875 C 0.203125 -0.515625 0.179688 -0.460938 0.171875 -0.390625 Z M 0.546875 -0.390625 "/></g></g></g></g><g clip-path="url(#abea15b02f)"><g fill="#ffda45" fill-opacity="1"><g transform="translate(11.485194, 1.335133)"><g><path d="M 0.140625 0 L 0.03125 0 L 0.234375 -0.34375 L 0.046875 -0.671875 L 0.15625 -0.671875 L 0.3125 -0.40625 L 0.46875 -0.671875 L 0.578125 -0.671875 L 0.390625 -0.34375 L 0.59375 0 L 0.484375 0 L 0.3125 -0.28125 L 0.296875 -0.28125 Z M 0.140625 0 "/></g></g></g></g><g clip-path="url(#0e1e958646)"><g fill="#ffda45" fill-opacity="1"><g transform="translate(12.105672, 1.335133)"><g><path d="M 0.453125 -0.109375 L 0.484375 -0.03125 C 0.460938 -0.0195312 0.4375 -0.0078125 0.40625 0 C 0.382812 0.0078125 0.363281 0.015625 0.34375 0.015625 C 0.207031 0.015625 0.140625 -0.0507812 0.140625 -0.1875 L 0.140625 -0.578125 L 0.03125 -0.578125 L 0.03125 -0.671875 L 0.140625 -0.671875 L 0.140625 -0.8125 L 0.25 -0.828125 L 0.25 -0.671875 L 0.453125 -0.671875 L 0.453125 -0.578125 L 0.25 -0.578125 L 0.25 -0.1875 C 0.25 -0.113281 0.28125 -0.078125 0.34375 -0.078125 C 0.375 -0.078125 0.40625 -0.0859375 0.4375 -0.109375 Z M 0.453125 -0.109375 "/></g></g></g></g></g></g></svg>